<?xml version="1.0" encoding="UTF-8"?><svg xmlns="http://www.w3.org/2000/svg" viewBox="0 0 1429.65 804.18"><defs><style>.cls-1{fill:#919191;}.cls-1,.cls-2,.cls-3,.cls-4,.cls-5,.cls-6,.cls-7,.cls-8{stroke-width:0px;}.cls-2{fill:#7e7e91;}.cls-3{fill:#cbecf7;}.cls-4{fill:#e6f9ff;}.cls-9{opacity:.3;}.cls-5{fill:#b8d9e0;}.cls-6{fill:#ce836f;}.cls-7{fill:#cee9f4;}.cls-8{fill:#a5bd9b;}</style></defs><g id="background"><rect class="cls-4" x="-315.45" y="-180.35" width="1938.6" height="1101.6"/><g class="cls-9"><polygon class="cls-3" points="1209.56 134.9 1195.57 113.71 1199.42 93.06 1203.08 88.6 1202.54 88.34 1184.25 74.82 1185.33 54.31 1187.74 47.72 1187.47 34.06 1204.58 16.95 1214.93 18.12 1222.27 11.81 1213.78 -3.47 1236.77 -22.75 1255.2 -26.7 1270.81 -17.4 1277.77 -14.32 1284.28 -13.65 1282.89 -22.5 1285.87 -42.23 1300.51 -50.36 1303.33 -52.65 1301.93 -66.42 1309.79 -79.32 1311.48 -85.87 1311.21 -93.54 1306.26 -100.54 1292.8 -120.04 1303.74 -138.11 1312.98 -158.44 1328.16 -155.4 1343.4 -166.92 1383.17 -132.38 1418.12 -99.83 1446.57 -81.52 1470.55 -76.07 1495.89 -68.69 1505.68 -59.95 1513.41 -59.33 1516.53 -61.28 1524.23 -70.12 1532.08 -73.56 1549.76 -89.58 1571.96 -77.95 1579.95 -57.43 1564.61 -34.66 1563.49 -32.03 1567.2 -25.66 1578.67 -11.53 1590.45 22.4 1555.55 29.92 1540.61 41.34 1540.14 44.96 1507.41 43.44 1490.46 42.91 1470.83 51.39 1453.51 68.94 1451.88 83.95 1428.41 109.95 1376.68 87.06 1331.28 64.52 1326.41 63.25 1312.93 68.01 1303.75 72.69 1303.4 73.03 1328.23 103.79 1298.05 115.2 1283.1 124.92 1270.1 118 1269.19 118.11 1269.38 123.5 1250.46 132.65 1249.1 132.99 1242.36 144.6 1209.56 134.9"/><path class="cls-7" d="m1215.89,126.35l-9.75-14.78,2.63-14.15,6.67-8.11.61-2.89-1.4-3.28-6.9-3.39-13.24-9.78.72-13.63,2.54-6.94-.23-11.28,10.69-10.69,9.89,1.12,10.93-9.38,4.04.78.79-1.48,2.93-2.08-1.55-1.74-8.75-15.76,14.76-12.38,12.17-2.61,12.76,7.6,8.96,3.96,15.71,1.62,3.01-.33,3.02-3.27-2.21-5.31-1.69-10.72,2.02-13.34,11.11-6.17,6.87-5.59.63-2.45-1.42-14,6.88-11.3,2.43-9.38-.42-12.11-6.61-9.35-9.79-14.17,7.89-13.04,6.2-13.64,11.8,2.36,12.36-9.34,33.52,29.12,35.47,33.04,30.68,19.75,25.4,5.77,22.88,6.66,10.61,9.48,14.38,1.15,7.19-4.49,7.2-8.28,7.29-3.19,13.71-12.43,12.7,6.65,4.73,12.15-12.95,19.22-3.46,8.13,6.63,11.36,10.84,13.37,7.5,21.59-26.04,5.62-13.8,10.56-5.37-1.69-.66,5.05-23.61-1.1-19.26-.6-23.47,10.14-21.13,21.41-1.66,15.26-16.46,18.22-44.9-19.87-46.12-22.9-8.83-2.31-17,6.01-11.08,5.64-10.04,9.61-6.56-.47,3.6,3.45,9.8,1.14,17.07,21.14-18.27,6.91-10.91,7.09-10.54-5.6-5.77.66-3.04-.45-2.86,2.12-1.47.39.25,6.9-12.12,5.87-4.46,1.11-4.92,8.47-21.76-6.44Zm52.42-62.79l-1.88-3.92-4.98-3.38-9.41.9-1.66,2.2,4.6,3.32,13.33.88Z"/><path class="cls-3" d="m1215.89,126.35l-9.75-14.78,2.63-14.15,6.67-8.11.61-2.89-1.4-3.28-6.9-3.39-13.24-9.78.72-13.63,2.54-6.94-.23-11.28,10.69-10.69,9.89,1.12,10.93-9.38,4.04.78.79-1.48,2.93-2.08-1.55-1.74-8.75-15.76,14.76-12.38,12.17-2.61,12.76,7.6,8.96,3.96,15.71,1.62,3.01-.33,3.02-3.27-2.21-5.31-1.69-10.72,2.02-13.34,11.11-6.17,6.87-5.59.63-2.45-1.42-14,6.88-11.3,2.43-9.38-.42-12.11-6.61-9.35-9.79-14.17,7.89-13.04,6.2-13.64,11.8,2.36,12.36-9.34,33.52,29.12,35.47,33.04,30.68,19.75,25.4,5.77,22.88,6.66,10.61,9.48,14.38,1.15,7.19-4.49,7.2-8.28,7.29-3.19,13.71-12.43,12.7,6.65,4.73,12.15-12.95,19.22-3.46,8.13,6.63,11.36,10.84,13.37,7.5,21.59-26.04,5.62-13.8,10.56-5.37-1.69-.66,5.05-23.61-1.1-19.26-.6-23.47,10.14-21.13,21.41-1.66,15.26-16.46,18.22-44.9-19.87-46.12-22.9-8.83-2.31-17,6.01-11.08,5.64-10.04,9.61-6.56-.47,3.6,3.45,9.8,1.14,17.07,21.14-18.27,6.91-10.91,7.09-10.54-5.6-5.77.66-3.04-.45-2.86,2.12-1.47.39.25,6.9-12.12,5.87-4.46,1.11-4.92,8.47-21.76-6.44Zm52.42-62.79l-1.88-3.92-4.98-3.38-9.41.9-1.66,2.2,4.6,3.32,13.33.88Z"/><polygon class="cls-3" points="921.87 632.46 907.14 615.23 905.73 614.45 903.9 612.38 885.23 610.35 889.78 580.18 890.16 579.41 887.71 559.8 884.15 557.64 880.29 556.86 868.68 559.94 860.55 564.43 853.21 570.28 834.98 578.26 823.97 574.78 823.14 574.79 818.06 576.64 813.89 579.78 807.98 582.05 807.36 583.6 774.05 595.71 772.42 592.26 769.22 594.68 745.87 618.03 734.98 615.78 734.11 616.27 685.17 629.5 694.53 605.33 689.34 606.09 682.04 608.4 664.71 613.41 643.41 600.31 626.09 582.99 625.02 559.8 638.23 536.3 667.67 538.9 678.61 523.22 692.69 522.13 697.4 519.62 722.22 501.17 739.22 489.95 743.51 478.62 788.49 464.15 803.91 469.93 809.44 467.75 848.64 468.41 871.59 457.75 896.21 459.59 921.73 448.96 943.33 466.23 944.65 466.27 941.42 460.37 953.85 440.79 959.67 422.8 972.68 421.76 984.48 412.57 993.75 399.36 993.49 393.84 988.9 376.52 1003.6 352.66 1019.24 351.68 1034.49 344.99 1070.54 336.98 1074.37 373.97 1091.73 368.57 1105.19 361.67 1123.94 345.24 1132.33 327.36 1156.56 316.56 1163.74 312 1164.3 305.73 1174.74 282.95 1185.48 272.45 1188.08 267.38 1195.32 244.89 1199.7 239.05 1199.96 238.22 1177.8 222.39 1182.13 179.06 1194.46 183.33 1193.04 164.22 1207.35 136.21 1216.82 137.51 1216.07 131.24 1233.01 104.42 1252.38 109.59 1252.94 107.5 1271.49 84.32 1298.41 96.7 1303.08 100.01 1306.07 100.53 1336.48 97.49 1328.27 141.69 1329.93 152.1 1330.96 152.12 1350.15 177.14 1355.25 191.01 1363.52 207.03 1371.14 239.56 1363.3 256.41 1351.45 282.68 1339.61 289.37 1337.57 296.79 1338.45 329.45 1307.9 335.32 1299.67 330.48 1299.32 335.17 1303.61 342.97 1307.66 368.01 1303.94 388.88 1301.26 401.01 1293.93 414.45 1287.26 418.03 1284.78 422.96 1281.59 430.47 1280.15 433.39 1281.19 443.32 1278.93 446.36 1279.1 447.01 1282.48 453.09 1287.32 459.75 1298.64 469.35 1291 497.4 1273.03 498.93 1268.57 499.13 1266.24 500.58 1265.89 501 1266.18 512.48 1255.08 527.86 1238.5 535.44 1236.15 535.31 1234.72 536.17 1229.58 547.79 1202.72 548.73 1185.8 537.46 1184.68 531.55 1184.65 531.54 1181.84 541.59 1170.49 561.4 1141.42 571.34 1124.54 554.88 1116.1 571.46 1089.87 563.81 1060.86 563.64 1052.57 566.64 1046.18 567.59 1041.43 587.37 1013.23 591.16 1009.8 588.83 1007.36 589.53 1007.36 596.19 994.07 606.36 990.61 608.47 982.23 624.57 965.31 636.36 949.1 638.6 921.87 632.46"/><polygon class="cls-7" points="927.31 623.44 916.68 611 916.44 608.93 912.07 606.53 908.83 602.85 896.67 601.53 899.44 583.2 902.34 577.3 899.79 575.8 897.76 559.58 907.13 555.48 896.95 553.71 887.84 548.19 879.99 546.6 864.93 550.59 854.98 556.08 848 561.64 834.41 567.59 825.47 564.77 821.34 564.81 813.24 567.75 808.99 570.95 800.33 574.27 799.75 575.72 779.2 583.2 776.05 576.53 775.12 576.66 774.8 577.94 764.69 585.57 764.27 585.49 742.61 607.14 733.32 605.23 730.28 606.95 701.63 614.69 707.96 598.35 698.93 594.57 687.09 596.32 679.14 598.83 666.18 602.58 649.65 592.4 635.9 578.66 635.14 562.2 643.78 546.83 671.3 549.26 675.2 545.59 684.1 532.83 695.55 531.94 702.77 528.08 727.96 509.36 747.43 496.51 751.16 486.66 788.23 474.74 800.13 479.2 802.7 481.17 811.26 477.78 850.77 478.45 873.44 467.92 897.85 469.74 920.11 460.47 938.35 475.06 937.73 476.09 948.74 476.38 957.52 471.32 958.22 470.23 953.02 460.75 962.97 445.07 967.13 432.23 976.46 431.49 991.8 419.54 1003.9 402.31 1003.43 392.31 999.66 378.11 1009.4 362.32 1021.63 361.55 1037.62 354.54 1061.75 349.18 1064.44 375.16 1057.96 377.08 1058.61 388.44 1045.39 387.5 1044.56 388.31 1044.92 398.37 1044.81 398.68 1046.6 398.94 1049.84 393.78 1069.06 386.1 1095.53 377.87 1110.85 370 1132.1 351.38 1139.8 334.98 1161.3 325.4 1173.26 317.8 1174.11 308.33 1183.06 288.8 1193.63 278.46 1197.35 271.22 1204.33 249.55 1208.7 243.71 1212.61 231.54 1211.91 227.46 1204.34 229.06 1188.33 217.62 1190.82 192.65 1205 197.56 1206.74 194.77 1208.26 188.82 1204.53 183.92 1203.22 166.27 1213.02 147.08 1224.06 148.61 1226.19 147.86 1227.66 143.94 1226.42 133.58 1237.53 115.98 1254.2 120.43 1259.54 121.44 1262.05 112.12 1274.41 96.67 1293.39 105.4 1299.14 109.48 1305.7 110.62 1324.21 108.77 1318.13 141.56 1321.38 161.98 1325.98 162.04 1341.29 182.02 1346.08 195.05 1354.07 210.52 1360.61 238.48 1354.21 252.25 1343.68 275.58 1331.98 282.2 1330.35 285.33 1327.54 295.57 1328.22 321.23 1309.72 324.79 1301.21 319.78 1292 321.46 1291.92 321.44 1289.83 327.88 1289.14 337.4 1294.02 346.27 1297.51 367.93 1294.13 386.92 1291.81 397.47 1286.58 407.05 1279.76 410.71 1275.7 418.75 1272.49 426.3 1269.9 431.56 1270.84 440.48 1268.04 444.24 1269.74 450.76 1274.03 458.49 1279.94 466.6 1287.32 472.86 1283.18 488.03 1272.38 488.95 1265.51 489.26 1259.56 492.95 1255.79 497.53 1256.1 509.36 1248.52 519.86 1236.59 525.32 1233.14 525.13 1231.7 526.32 1226.85 529.22 1222.97 538.02 1205.59 538.62 1194.84 531.46 1193.18 522.76 1186.33 521.68 1184.71 514.5 1175 515.44 1174.61 515.9 1176.41 523.91 1172.54 537.69 1163.68 553.15 1144 559.89 1131.19 547.38 1130.68 533.99 1125.54 536.77 1124.72 540.48 1117.58 546.51 1110.95 559.54 1091.33 553.82 1059.14 553.63 1050.12 556.89 1039.41 558.48 1037.16 559.44 1037.24 562 1033.3 578.37 1015.68 580.74 1011.53 577.94 1001.32 580.85 997.36 582.08 997.36 591.25 988.41 598.09 983.02 601.39 974.5 617.77 961.57 626.79 949.53 628.45 927.31 623.44"/><polygon class="cls-3" points="927.31 623.44 916.68 611 916.44 608.93 912.07 606.53 908.83 602.85 896.67 601.53 899.44 583.2 902.34 577.3 899.79 575.8 897.76 559.58 907.13 555.48 896.95 553.71 887.84 548.19 879.99 546.6 864.93 550.59 854.98 556.08 848 561.64 834.41 567.59 825.47 564.77 821.34 564.81 813.24 567.75 808.99 570.95 800.33 574.27 799.75 575.72 779.2 583.2 776.05 576.53 775.12 576.66 774.8 577.94 764.69 585.57 764.27 585.49 742.61 607.14 733.32 605.23 730.28 606.95 701.63 614.69 707.96 598.35 698.93 594.57 687.09 596.32 679.14 598.83 666.18 602.58 649.65 592.4 635.9 578.66 635.14 562.2 643.78 546.83 671.3 549.26 675.2 545.59 684.1 532.83 695.55 531.94 702.77 528.08 727.96 509.36 747.43 496.51 751.16 486.66 788.23 474.74 800.13 479.2 802.7 481.17 811.26 477.78 850.77 478.45 873.44 467.92 897.85 469.74 920.11 460.47 938.35 475.06 937.73 476.09 948.74 476.38 957.52 471.32 958.22 470.23 953.02 460.75 962.97 445.07 967.13 432.23 976.46 431.49 991.8 419.54 1003.9 402.31 1003.43 392.31 999.66 378.11 1009.4 362.32 1021.63 361.55 1037.62 354.54 1061.75 349.18 1064.44 375.16 1057.96 377.08 1058.61 388.44 1045.39 387.5 1044.56 388.31 1044.92 398.37 1044.81 398.68 1046.6 398.94 1049.84 393.78 1069.06 386.1 1095.53 377.87 1110.85 370 1132.1 351.38 1139.8 334.98 1161.3 325.4 1173.26 317.8 1174.11 308.33 1183.06 288.8 1193.63 278.46 1197.35 271.22 1204.33 249.55 1208.7 243.71 1212.61 231.54 1211.91 227.46 1204.34 229.06 1188.33 217.62 1190.82 192.65 1205 197.56 1206.74 194.77 1208.26 188.82 1204.53 183.92 1203.22 166.27 1213.02 147.08 1224.06 148.61 1226.19 147.86 1227.66 143.94 1226.42 133.58 1237.53 115.98 1254.2 120.43 1259.54 121.44 1262.05 112.12 1274.41 96.67 1293.39 105.4 1299.14 109.48 1305.7 110.62 1324.21 108.77 1318.13 141.56 1321.38 161.98 1325.98 162.04 1341.29 182.02 1346.08 195.05 1354.07 210.52 1360.61 238.48 1354.21 252.25 1343.68 275.58 1331.98 282.2 1330.35 285.33 1327.54 295.57 1328.22 321.23 1309.72 324.79 1301.21 319.78 1292 321.46 1291.92 321.44 1289.83 327.88 1289.14 337.4 1294.02 346.27 1297.51 367.93 1294.13 386.92 1291.81 397.47 1286.58 407.05 1279.76 410.71 1275.7 418.75 1272.49 426.3 1269.9 431.56 1270.84 440.48 1268.04 444.24 1269.74 450.76 1274.03 458.49 1279.94 466.6 1287.32 472.86 1283.18 488.03 1272.38 488.95 1265.51 489.26 1259.56 492.95 1255.79 497.53 1256.1 509.36 1248.52 519.86 1236.59 525.32 1233.14 525.13 1231.7 526.32 1226.85 529.22 1222.97 538.02 1205.59 538.62 1194.84 531.46 1193.18 522.76 1186.33 521.68 1184.71 514.5 1175 515.44 1174.61 515.9 1176.41 523.91 1172.54 537.69 1163.68 553.15 1144 559.89 1131.19 547.38 1130.68 533.99 1125.54 536.77 1124.72 540.48 1117.58 546.51 1110.95 559.54 1091.33 553.82 1059.14 553.63 1050.12 556.89 1039.41 558.48 1037.16 559.44 1037.24 562 1033.3 578.37 1015.68 580.74 1011.53 577.94 1001.32 580.85 997.36 582.08 997.36 591.25 988.41 598.09 983.02 601.39 974.5 617.77 961.57 626.79 949.53 628.45 927.31 623.44"/><polygon class="cls-3" points="522.76 645.92 532.24 623.8 537.83 615.73 544.7 607.93 561.84 595.55 576.04 605.52 590.63 615.8 580.4 634.56 578.46 640.77 573.97 647.05 565.26 655.48 548.81 658.94 522.76 645.92"/><polygon class="cls-7" points="535.67 641.19 541.04 628.67 545.72 621.9 551.46 615.38 561.92 607.82 570.29 613.71 577.58 618.84 571.15 630.63 569.39 636.26 566.36 640.5 560.38 646.29 550.16 648.44 535.67 641.19"/><polygon class="cls-3" points="535.67 641.19 541.04 628.67 545.72 621.9 551.46 615.38 561.92 607.82 570.29 613.71 577.58 618.84 571.15 630.63 569.39 636.26 566.36 640.5 560.38 646.29 550.16 648.44 535.67 641.19"/><polygon class="cls-3" points="553.06 638.26 538.38 627.96 578.08 555.61 584.46 619.87 588.72 663.17 553.06 638.26"/><polygon class="cls-7" points="558.79 630.07 551.46 624.92 571.32 588.72 574.51 620.86 576.64 642.54 558.79 630.07"/><polygon class="cls-3" points="558.79 630.07 551.46 624.92 571.32 588.72 574.51 620.86 576.64 642.54 558.79 630.07"/><polygon class="cls-3" points="613.93 782.92 610.82 782.49 608.93 778.92 593.26 779.74 585.81 766.58 579.01 763.67 575.75 738.75 581.14 734.74 580.98 722.3 568.6 703.28 567.77 694.58 558.52 692.79 547.98 665.01 550.85 663.23 550.29 662.13 546.68 652.89 547.14 648.46 540.67 642.14 542.17 627.64 544.46 621.75 540.59 580.6 565.46 598.08 568.28 592.87 587.43 592.35 587.89 592.02 605.49 582.77 615.29 572.24 622.84 571.74 625.89 569.8 641.54 566.51 642.69 566.99 645.26 564.15 674.37 572.6 674.88 585.47 676.56 583.46 706.15 585.7 720.99 605.48 720.85 611.82 736.24 612.19 731.67 630.48 749.21 644.37 757.24 648.64 734.27 667.01 731.52 674.34 722.04 681.5 722.51 682.98 713.4 696.65 710.14 701.04 705.07 714.2 703.46 720.81 705.03 728.04 699.92 744.16 691.76 766.05 675.64 770.94 673.09 772.93 665.76 780.93 651.74 786.98 643.82 791.76 619.4 795.9 613.93 782.92"/><polygon class="cls-7" points="620.94 773.81 617.26 773.29 614.83 768.72 611.52 768.77 598.92 769.43 592.84 758.71 588.19 756.72 586.43 743.27 596.71 735.63 591.1 731.42 590.94 719.27 592.39 716.04 590.5 709.79 585.6 711.07 578.32 699.89 577.66 692.88 578.34 686.43 565.89 684.03 560.25 669.16 564.43 666.57 563.13 665.38 559.44 658.04 556.88 651.51 557.59 644.68 551.11 638.36 551.98 630.01 553.92 625.01 554.72 624.03 552.57 601.25 568.89 612.72 574.32 602.71 586.77 602.37 588.9 603.59 593.15 600.55 606.16 593.72 608.27 595.64 608.08 594.67 619.91 581.96 626.04 581.55 629.72 579.22 640.53 576.94 645.34 578.97 648.48 575.5 664.66 580.2 665.2 594.06 666.55 598.09 668.96 598.29 674.08 600.15 675.69 600.06 680.93 593.82 700.87 595.33 710.92 608.72 710.66 620.88 710.25 621.56 723.51 621.89 720.4 634.32 734.39 645.39 732.35 646.72 739.12 650.33 725.87 660.92 723.18 668.11 712.08 676.49 710.36 677.69 711.54 681.42 705.22 690.9 701.3 696.17 695.5 711.21 693.2 720.68 694.69 727.55 690.46 740.9 684.12 757.92 670.97 761.91 666.28 765.55 659.83 772.6 647.16 778.07 640.28 782.22 625.54 784.72 620.94 773.81"/><polygon class="cls-3" points="620.94 773.81 617.26 773.29 614.83 768.72 611.52 768.77 598.92 769.43 592.84 758.71 588.19 756.72 586.43 743.27 596.71 735.63 591.1 731.42 590.94 719.27 592.39 716.04 590.5 709.79 585.6 711.07 578.32 699.89 577.66 692.88 578.34 686.43 565.89 684.03 560.25 669.16 564.43 666.57 563.13 665.38 559.44 658.04 556.88 651.51 557.59 644.68 551.11 638.36 551.98 630.01 553.92 625.01 554.72 624.03 552.57 601.25 568.89 612.72 574.32 602.71 586.77 602.37 588.9 603.59 593.15 600.55 606.16 593.72 608.27 595.64 608.08 594.67 619.91 581.96 626.04 581.55 629.72 579.22 640.53 576.94 645.34 578.97 648.48 575.5 664.66 580.2 665.2 594.06 666.55 598.09 668.96 598.29 674.08 600.15 675.69 600.06 680.93 593.82 700.87 595.33 710.92 608.72 710.66 620.88 710.25 621.56 723.51 621.89 720.4 634.32 734.39 645.39 732.35 646.72 739.12 650.33 725.87 660.92 723.18 668.11 712.08 676.49 710.36 677.69 711.54 681.42 705.22 690.9 701.3 696.17 695.5 711.21 693.2 720.68 694.69 727.55 690.46 740.9 684.12 757.92 670.97 761.91 666.28 765.55 659.83 772.6 647.16 778.07 640.28 782.22 625.54 784.72 620.94 773.81"/><polygon class="cls-3" points="769.73 685.2 757.61 684.68 717.14 675.34 727.44 662.98 711.84 646.71 678.68 647.89 704.61 608.93 715.22 600.83 729.01 595.96 732.05 595.47 737.33 591.52 739.79 590.12 740 589.08 747.11 572.93 755.19 567.48 764.16 550.36 782.66 557.65 773.94 544.52 820.76 547.25 831.05 539.16 845.9 540.29 860.54 541.6 871.52 548.6 877.4 550.58 901.98 553.37 900.86 575.02 907.3 582.24 907.13 610.04 889.19 619.56 879.69 625.85 875.64 631.67 863.99 667.06 835.06 643.78 828.74 636.65 825.59 635.72 824.3 635.82 818.11 640.79 817.48 641 807.18 652.31 802.38 657.73 805.22 667.28 785.03 687.95 769.73 685.2"/><polygon class="cls-7" points="770.84 675.24 758.96 674.73 735.23 669.25 740.85 662.51 725.19 646.18 733.8 637.84 729.4 635.98 729.31 636.09 697.81 637.2 712.01 615.86 720.04 609.73 731.48 605.69 736.06 604.96 742.81 599.9 748.69 596.58 749.59 592.12 755.1 579.61 762.88 574.36 768.85 562.96 783.79 568.85 789.78 576.24 790.27 576.86 798.25 573.34 806.11 574.9 793.34 555.67 819.66 557.2 823.26 558 834.17 549.43 845.01 550.25 857.22 551.34 867.17 557.69 875.21 560.4 891.51 562.25 890.66 578.61 897.28 586.03 897.17 604.01 884.07 610.96 872.57 618.56 866.6 627.15 859.01 650.21 841.99 636.51 834.32 627.88 826.68 625.61 820.46 626.07 813.21 631.9 808.24 633.6 808.16 636.39 799.74 645.62 791.21 655.25 793.96 664.49 781.58 677.17 770.84 675.24"/><polygon class="cls-3" points="770.84 675.24 758.96 674.73 735.23 669.25 740.85 662.51 725.19 646.18 733.8 637.84 729.4 635.98 729.31 636.09 697.81 637.2 712.01 615.86 720.04 609.73 731.48 605.69 736.06 604.96 742.81 599.9 748.69 596.58 749.59 592.12 755.1 579.61 762.88 574.36 768.85 562.96 783.79 568.85 789.78 576.24 790.27 576.86 798.25 573.34 806.11 574.9 793.34 555.67 819.66 557.2 823.26 558 834.17 549.43 845.01 550.25 857.22 551.34 867.17 557.69 875.21 560.4 891.51 562.25 890.66 578.61 897.28 586.03 897.17 604.01 884.07 610.96 872.57 618.56 866.6 627.15 859.01 650.21 841.99 636.51 834.32 627.88 826.68 625.61 820.46 626.07 813.21 631.9 808.24 633.6 808.16 636.39 799.74 645.62 791.21 655.25 793.96 664.49 781.58 677.17 770.84 675.24"/><path class="cls-3" d="m-328.81,929.78l-.33-19.44c-.09-5.52-2.3-135.61-3.9-264.17-.96-76.89-1.51-138.39-1.65-182.78-.08-26.43-.02-47.04.19-61.28.12-7.81.28-13.92.49-18.17.22-4.46.41-8.4,1.74-12.21,3.18-33.9,5.43-342.32,6.17-544.06l.07-19.91,1454.89-1.14-38.5,48.68-24.14,18.93-31.8,22.51-16.53,17.58-14.87,11.94-7.61,11.79-22.58,12.52-6.2,5.03-2.2,5.09-11.49,17.24-19.91,14.87-18.72,16.56-18.33,9.54-15.37,8.12-15.65,5.01-16.46,11.4-18.59,6.5-13.97,1.01-10.07,2.18-7.74,5.85-23.17.02-3.73,3.28-4.1-3.28h-12.48s1.84-8.51,1.84-8.51l-1.57-1.26-1.45.17-20.55,1.6-17.28-14.4v-.72s-.17.07-.17.07l-10.85-2.49-11.23,11.23-15.51,19.38-19.66,1.64-12.09,12.44-19.22,4.26-17.07,11.08-14.63,15.15,8.68,11.29-8.71,19.91-2.04,35.35h-19.59l-12.27,5.02-20.03,15.15-23.39,16.46-27.59,12.71-19.04,3.35-11.74,6.35-3.65,2.05-.42,4.46-.83,5.06,5.93,3,27.32,18.22,20.14,17.01,23.14,38.15,34.12,42.13,13.88,43.62-2.5,25.3h6.01s3.91,29.94,3.91,29.94l-5.64,7.68-1.4,6.23-2.1,14.98-3.62,9.52-6.37,9.05-10.12,13.33-20.03,14.25-12.55,1.29-10.33-.66.57,24.33-26.32-10.8-.42,2.06-7.3,3.13,1.6,5.41-33.84,10.08-7.75-4.28-9.52,10.52-21.13-.48-2.42,5.12-24.76,2.34-30.64-2.83-.61-17.04-19.29-7.52,8.35-28.34-3.6-11.35,6.42-17.08-18.58-3.57,34.81-29.15-4.12-9.5-3.33-19.04-11.5-5.28-14.32-25.97,17.93-18.02,15.34-10.66-5.48-6.04v-.17s-9.81-6.36-9.81-6.36l-3.1-3.99-3.26-.61-8.07-.7-5.22,3.7-16.81,9.16-51.21-7.2,10.1-11.07-15.85-10.92.21-.28-19.33-7.51,19.75-30.73,9.04-14.73,5.52-6.95,2.27-20.33,9.77-13.12-6.04-2.3-27.58,2.6-6.56-14.24-4.3-2.4-1.33,1.2-33.83,1.18-25.03,7.43-13.42,1.86-12.62,3.47-15.41,8.71-11.64,3.48-.87.69.67,2.75-16.91,17.21-9.23,2.76-12.9,9.09-2.82-1.38-5.11,4.88-18.07,3.86-5.19.43c-5.25,3.52-9.27,5.3-14.58,5.3-8.07,0-15.33-4.78-18.5-12.18-1.62-3.79-1.85-5.89-2.19-20.42l-.31-13.14,6.91-3.18-.63-5.2-6.68-1.01,6.45-29.68,14.81-12.55c1.11-2.36,2.54-4.87,4.31-7.56l2.91-4.43,19.23-9.82,1.12.04,9.12-9.31,3.42-3.78-2.89-1.47-2.1-.87-4.84,1.06-13.8-3-7.78-1.58-7.34,9.9-7.02,1.3-.09.29-13.27,9.88-15.16,22.74-14.81.4-15.58,5.79-5.25,4.5-17.41,4.42-2.2.64-3.24,4.05-3.35,2.08,5.22,12.18-17.61,13.21-10.58,8.05-18.55,10.64h-15.39l-6.7.85-17.96,9.45-18.8-9.66-2.46-1.96-2.45,3.92-3.73,4.55,2.02,3.44,7.73,6.26,14.67,5.2,8.96,1.62,3.25.65,10.79-3.47,15.84-.03,20.25,9.18.68,5.86.89.22,4.63,7.52,3.88,1.66,13.01,15.5-2.28,18.86,7.75-6.61,10.87-3.91,15.69-12.13,9.82-6.44,21.7-8.6,29.22-1.61,6.85,9.87,6.95,1.79,8.01-5.81,13.47,17.48,10.86.48,6.5-4.13,22.68-2.45,7.16,8.68h18.72l23.26,13.57-9.76,33.92-2.64,2.29-2.38,20.57-16.17,4.65-10.93,4.82-13.44-1.12-11.22-4.52-2.34.09-3.43,1.13-1.7,12.2-19.83-2.55-1.73,2.19-11.42-.1-8.15,3.44-5.92,10.94-7.01,4.22.4,12.66-24.36,6.34-7.04,2.42-.95,1.21-12.38,9.21-2.13,8.56-8.01,1.45-5.68,10.68-11.18-1.65-2.02,1.19-7.51,9.88-2.56,1.76-.75,1.47-1.13,2.95,7.59,6.27.36,3.85,3.89,1.02,3.91,1.78,16.48,3.52,4.19,4.5,3.99.92,13.13,7.12,6.02,14.74,5.08,12.92,2.54,6.95,7.45,7.01-.62,9.16,8.17,11.13.13,1.44,4.5,2.58,1.56,11.3,9.59,4.11-.09,26.37.71.46,20.81,8.25,9.83,13.78.86,4.67,1.7.53,6.47,3.46,4.12,3.17,7.35,5.46,10.92,12.88-.31,4.04,3.04,3.69-.83,8.61,1.88,2.89,5.77,18.24-12.05,9.92,10.35,16.61-6.13,19-13.97,8.93-21.09,1.64,7.66,9.24,3.03,3.73,7.82-5.56,9.08,8.73,20.61.61.47,38.59-9.18,2.91-.25,1.09,3.06,3.73-2.83,6.61,10.84,11.01-12.67,9.61-8.6,21.01-10.48-.7-2.12,1.88.02,8.89-11.4,1.95-.07,6.21-402.05-4.37Z"/><path class="cls-7" d="m-318.98,919.89l-.17-9.72c-.02-1.32-2.27-133.26-3.9-264.12-.95-76.87-1.51-138.34-1.65-182.69-.08-26.38-.02-46.93.19-61.1.11-7.7.27-13.69.48-17.83.22-4.47.38-7.69,1.55-10.31,3.3-27.4,5.61-339.58,6.37-546.41l.04-9.96,1424.25-1.12-24.94,31.53-23.01,18.05-32.42,22.95-16.74,17.8-15.59,12.51-7.13,11.04-21.16,11.73-8.78,7.13-2.82,6.51-10.04,15.06-18.86,14.09-18.11,16.02-17.24,8.97-14.64,7.74-16.23,5.2-16.57,11.48-16.06,5.61-13.36.96-12.91,2.8-6.82,5.15-23.59.02-.26.23-.29-.23h-3.58s.53-2.44.53-2.44l-8.36-6.69-1.45-1.04-5.28.63-16.29,1.27-10.64-8.87-.21-11.48-10.97,5.07-13.04-2.99-1.32,1.47-14.09,14.1-13.16,16.45-19.1,1.59-12.61,12.98-18.06,4.01-19.54,12.68-19.04,19.7-.74,4.61,8.69,11.3-7.06,16.13-1.6,27.71h-12.11l-15.3,6.25-20.94,15.84-22.51,15.84-25.59,11.79-19.36,3.4-13.24,7.16-8.29,4.65-.88,9.33-1.81,10.95v1.09s11.78,5.96,11.78,5.96l26.35,17.57,18.46,15.59,22.64,37.33,33.36,41.19,12.68,39.86-2.7,27.32-.49,6.92h8.08s2.25,17.24,2.25,17.24l-4.5,6.12-1.95,8.67-2,14.27-2.78,7.29-5.55,7.88-9.09,11.97-16.64,11.83-9.1.94-13.92-.89-1.21-.68-5.23,1.74.43,18.48-18.92-7.76-4.91.4-1.32,6.56-10.64,4.56,1.29,4.37-20.27,6.04-11.01-6.08-11.77,13-19.27-.43-2.14-3.54-4.4,9.29-18.16,1.71-20.95-1.93-.51-14.11-.27-.81-16.61-6.48,6.62-22.47-3.48-10.96,9.37-24.94-9.55-1.84,23.78-19.91-.08-2.13-5.92-13.65-4.03-23.05-13.28-6.1-9.11-16.52,12-12.06,12.99-9.03,2.56.86,2.21-4.21,5.19-.07-.51-3.27,1.02-1.93-3.17-3.01-6.93-7.64-.03-2.59-1.95-.42-10.92-7.09-4.39-5.65-7.47-1.4-10.81-.93-.58-.71-8.55,6.07-13.39,7.29-29.16-4.1,5.23-5.73-.51-.03-16.47-11.34,1.83-2.49-20.09-7.81,13.19-20.52,8.78-14.31,6.93-8.73,2.29-20.5,8.9-11.94,5.05-6.71-4.74-5.26-5.11-2.2-13.43-5.13-1.65,2.45-16.37,1.55-4.96-10.76-8.78-4.9-3.2-3.88-5.37,4.86-31.45,1.1-25.53,7.58-13.32,1.84-14.44,3.97-15.51,8.76-12.42,3.72-7.38,5.89.87,3.55-11.2,11.4-8.32,2.49-9.39,6.62-3.76-1.84-8.11,7.74-14.67,3.14-7.21.59c-5.97,4.23-8.27,5.04-11.1,5.04-4.06,0-7.72-2.4-9.31-6.12-.81-1.88-1.05-2.45-1.38-16.72l-.15-6.57,23.34-10.74,3.04-1.08-.11-1.48-7.43.16-12.71-2.21-.98-8.12-3.66-.55,3.47-15.95,10.86-9.2,2.32-.12c.56-2.25,1.92-5.67,5.25-10.74l1.45-2.21,14.54-7.43,3.21.12,1.91-2.24,10.18-10.39,6.42-7.08,3.38-2.83-1.97-1.01-.42-5.21-9.98-5.06-5.35-2.22-5.78,1.26-11.73-2.55-10.38-2.11-3.76-.09-2.48,2.75-6.25,8.44-9.18,1.7-.88,2.98-11.98,8.93-13.25,19.87-11.29.3-18.81,6.99-4.83,4.14-15.31,3.89-5.4,1.58-4.14,5.17-5.27,3.27-2.76,5.15,4.35,10.15-11.32,8.49-10.11,7.7-15.67,8.99h-13.36l-9.12,1.16-14.96,7.87-13.28-6.82-7.27-5.82-1.71.08-5.95,4.56-3.58,5.72-5.42,6.6-.87,5.33,5.02,8.54,10.48,8.48,17.05,6.04,9.57,1.73,5.81,1.17,11.78-3.79,12.1-.03,13.11,5.94.83,7.16,3.66.89,4.14,6.72,4.61,1.97,8.69,10.35-2.34,19.35-15.03-1.45-1.73-.95-2.02,7.65.83.72,4.1,3.46,4.61,1.27,14.39.53,10.71-.12,1.45-7.35,6.05-5.16,10.64-3.83,16.63-12.85,8.64-5.67,19.24-7.62,22.02-1.22,4.9,7.06,1.38,1.4,9.57,2.47,1.34,3.98,7.65-5.55,9.67,12.55,1.11.99h1.09s17.16.75,17.16.75l7.19-4.56,15.01-1.62,6.3,7.64,2.42.52h18.75l14.2,8.28-6.79,23.59-3.34,2.89-2.06,17.81-10.41,2.99-9.22,4.06-9.4-.78-10.19-4.1-.34-.7-7.16.29-10.69,3.5-1.2,8.58-15.63-2.01-2.2,2.79-8.59-.07-13.84,5.85-.54.3-.69,2.74-4.52,8.35-9.69,5.83.34,10.54-17,4.43-10.2,3.51-1.95,2.48-11.75,8.74-1.86-.47-2,8.04-6.42,1.16-4.65,8.74-7.7-1.14-3.4,2.01-2.67-.3-1.52,3.38-6.88,9.05-3.33,2.29-2.14,4.22-4.2,10.99-2.92.75,6.26.9,6.89,5.7.38,4.16,1.28,1.07,3.94,2.77,4.85,1.28,4.12,1.87,14.46,3.09,4.13,4.44,5.65,1.3,8.8,4.77,4.62,11.31,4.99,12.69,3.35,9.17,5.73,5.4-.55,8.09,8.68,11.83.35,3.85,4.76,2.73,1.19,8.63,2.25,4.17,6.92,2.96-.07,21.03-1.3,3.66,1.03.36,6.38,4.12,18.98,7.53,6.83,9.56,1.54,8.41,6.56,2.06,4.92,2.63,3.53,2.71,6.49,4.82,7.52,8.87-.31,3.95,2.97,3.61-.77,7.96,3.04,4.68,3.32,10.51-11.1,9.14-4.66,1.05,6.67,8.24,8.02,12.88-3.6,11.16-8.83,5.64-19.84,1.55-6.21,1.24-3.88,1.77-8.09,5.76,10.12,4.61,9.98,12.03,5.59,6.89,6.6,1.81,5.46-3.88,5.89,5.66,14.88.44.26,21.58-11.22,3.55,2.6,3.51-1.58,6.75,2.34,2.85-3.08,7.2,7.57,7.68-6.86,5.2.47.66-6.3,15.39-7.47-.5-8.62,7.65v4.94s-11.29,1.93-11.29,1.93l-.05,4.55-382.32-4.16Z"/><path class="cls-3" d="m-318.98,919.89l-.17-9.72c-.02-1.32-2.27-133.26-3.9-264.12-.95-76.87-1.51-138.34-1.65-182.69-.08-26.38-.02-46.93.19-61.1.11-7.7.27-13.69.48-17.83.22-4.47.38-7.69,1.55-10.31,3.3-27.4,5.61-339.58,6.37-546.41l.04-9.96,1424.25-1.12-24.94,31.53-23.01,18.05-32.42,22.95-16.74,17.8-15.59,12.51-7.13,11.04-21.16,11.73-8.78,7.13-2.82,6.51-10.04,15.06-18.86,14.09-18.11,16.02-17.24,8.97-14.64,7.74-16.23,5.2-16.57,11.48-16.06,5.61-13.36.96-12.91,2.8-6.82,5.15-23.59.02-.26.23-.29-.23h-3.58s.53-2.44.53-2.44l-8.36-6.69-1.45-1.04-5.28.63-16.29,1.27-10.64-8.87-.21-11.48-10.97,5.07-13.04-2.99-1.32,1.47-14.09,14.1-13.16,16.45-19.1,1.59-12.61,12.98-18.06,4.01-19.54,12.68-19.04,19.7-.74,4.61,8.69,11.3-7.06,16.13-1.6,27.71h-12.11l-15.3,6.25-20.94,15.84-22.51,15.84-25.59,11.79-19.36,3.4-13.24,7.16-8.29,4.65-.88,9.33-1.81,10.95v1.09s11.78,5.96,11.78,5.96l26.35,17.57,18.46,15.59,22.64,37.33,33.36,41.19,12.68,39.86-2.7,27.32-.49,6.92h8.08s2.25,17.24,2.25,17.24l-4.5,6.12-1.95,8.67-2,14.27-2.78,7.29-5.55,7.88-9.09,11.97-16.64,11.83-9.1.94-13.92-.89-1.21-.68-5.23,1.74.43,18.48-18.92-7.76-4.91.4-1.32,6.56-10.64,4.56,1.29,4.37-20.27,6.04-11.01-6.08-11.77,13-19.27-.43-2.14-3.54-4.4,9.29-18.16,1.71-20.95-1.93-.51-14.11-.27-.81-16.61-6.48,6.62-22.47-3.48-10.96,9.37-24.94-9.55-1.84,23.78-19.91-.08-2.13-5.92-13.65-4.03-23.05-13.28-6.1-9.11-16.52,12-12.06,12.99-9.03,2.56.86,2.21-4.21,5.19-.07-.51-3.27,1.02-1.93-3.17-3.01-6.93-7.64-.03-2.59-1.95-.42-10.92-7.09-4.39-5.65-7.47-1.4-10.81-.93-.58-.71-8.55,6.07-13.39,7.29-29.16-4.1,5.23-5.73-.51-.03-16.47-11.34,1.83-2.49-20.09-7.81,13.19-20.52,8.78-14.31,6.93-8.73,2.29-20.5,8.9-11.94,5.05-6.71-4.74-5.26-5.11-2.2-13.43-5.13-1.65,2.45-16.37,1.55-4.96-10.76-8.78-4.9-3.2-3.88-5.37,4.86-31.45,1.1-25.53,7.58-13.32,1.84-14.44,3.97-15.51,8.76-12.42,3.72-7.38,5.89.87,3.55-11.2,11.4-8.32,2.49-9.39,6.62-3.76-1.84-8.11,7.74-14.67,3.14-7.21.59c-5.97,4.23-8.27,5.04-11.1,5.04-4.06,0-7.72-2.4-9.31-6.12-.81-1.88-1.05-2.45-1.38-16.72l-.15-6.57,23.34-10.74,3.04-1.08-.11-1.48-7.43.16-12.71-2.21-.98-8.12-3.66-.55,3.47-15.95,10.86-9.2,2.32-.12c.56-2.25,1.92-5.67,5.25-10.74l1.45-2.21,14.54-7.43,3.21.12,1.91-2.24,10.18-10.39,6.42-7.08,3.38-2.83-1.97-1.01-.42-5.21-9.98-5.06-5.35-2.22-5.78,1.26-11.73-2.55-10.38-2.11-3.76-.09-2.48,2.75-6.25,8.44-9.18,1.7-.88,2.98-11.98,8.93-13.25,19.87-11.29.3-18.81,6.99-4.83,4.14-15.31,3.89-5.4,1.58-4.14,5.17-5.27,3.27-2.76,5.15,4.35,10.15-11.32,8.49-10.11,7.7-15.67,8.99h-13.36l-9.12,1.16-14.96,7.87-13.28-6.82-7.27-5.82-1.71.08-5.95,4.56-3.58,5.72-5.42,6.6-.87,5.33,5.02,8.54,10.48,8.48,17.05,6.04,9.57,1.73,5.81,1.17,11.78-3.79,12.1-.03,13.11,5.94.83,7.16,3.66.89,4.14,6.72,4.61,1.97,8.69,10.35-2.34,19.35-15.03-1.45-1.73-.95-2.02,7.65.83.72,4.1,3.46,4.61,1.27,14.39.53,10.71-.12,1.45-7.35,6.05-5.16,10.64-3.83,16.63-12.85,8.64-5.67,19.24-7.62,22.02-1.22,4.9,7.06,1.38,1.4,9.57,2.47,1.34,3.98,7.65-5.55,9.67,12.55,1.11.99h1.09s17.16.75,17.16.75l7.19-4.56,15.01-1.62,6.3,7.64,2.42.52h18.75l14.2,8.28-6.79,23.59-3.34,2.89-2.06,17.81-10.41,2.99-9.22,4.06-9.4-.78-10.19-4.1-.34-.7-7.16.29-10.69,3.5-1.2,8.58-15.63-2.01-2.2,2.79-8.59-.07-13.84,5.85-.54.3-.69,2.74-4.52,8.35-9.69,5.83.34,10.54-17,4.43-10.2,3.51-1.95,2.48-11.75,8.74-1.86-.47-2,8.04-6.42,1.16-4.65,8.74-7.7-1.14-3.4,2.01-2.67-.3-1.52,3.38-6.88,9.05-3.33,2.29-2.14,4.22-4.2,10.99-2.92.75,6.26.9,6.89,5.7.38,4.16,1.28,1.07,3.94,2.77,4.85,1.28,4.12,1.87,14.46,3.09,4.13,4.44,5.65,1.3,8.8,4.77,4.62,11.31,4.99,12.69,3.35,9.17,5.73,5.4-.55,8.09,8.68,11.83.35,3.85,4.76,2.73,1.19,8.63,2.25,4.17,6.92,2.96-.07,21.03-1.3,3.66,1.03.36,6.38,4.12,18.98,7.53,6.83,9.56,1.54,8.41,6.56,2.06,4.92,2.63,3.53,2.71,6.49,4.82,7.52,8.87-.31,3.95,2.97,3.61-.77,7.96,3.04,4.68,3.32,10.51-11.1,9.14-4.66,1.05,6.67,8.24,8.02,12.88-3.6,11.16-8.83,5.64-19.84,1.55-6.21,1.24-3.88,1.77-8.09,5.76,10.12,4.61,9.98,12.03,5.59,6.89,6.6,1.81,5.46-3.88,5.89,5.66,14.88.44.26,21.58-11.22,3.55,2.6,3.51-1.58,6.75,2.34,2.85-3.08,7.2,7.57,7.68-6.86,5.2.47.66-6.3,15.39-7.47-.5-8.62,7.65v4.94s-11.29,1.93-11.29,1.93l-.05,4.55-382.32-4.16Z"/><polygon class="cls-3" points="339.3 650.11 324.23 627.53 342.18 602.27 360.03 596.22 374.57 592.54 393.44 591.17 403.35 596.37 422.4 608.15 416.1 632.51 405.15 642.71 393.83 648.73 377.91 653.28 357.27 654.91 339.3 650.11"/><polygon class="cls-7" points="345.53 641.42 336.37 627.71 348.45 610.7 362.86 605.82 376.17 602.45 391.32 601.35 398.39 605.06 410.88 612.78 407.15 627.19 399.3 634.5 390.07 639.4 376.13 643.39 358.19 644.81 345.53 641.42"/><polygon class="cls-3" points="345.53 641.42 336.37 627.71 348.45 610.7 362.86 605.82 376.17 602.45 391.32 601.35 398.39 605.06 410.88 612.78 407.15 627.19 399.3 634.5 390.07 639.4 376.13 643.39 358.19 644.81 345.53 641.42"/><polygon class="cls-3" points="328.26 583.43 326.29 552.15 339.24 537.84 354.64 529.75 373.05 535.24 386.74 553.42 375.96 573.87 356.57 584.33 328.26 583.43"/><polygon class="cls-7" points="337.67 573.73 336.53 555.73 345.46 545.87 355.68 540.5 367.04 543.88 374.94 554.37 368.53 566.51 354.19 574.25 337.67 573.73"/><polygon class="cls-3" points="337.67 573.73 336.53 555.73 345.46 545.87 355.68 540.5 367.04 543.88 374.94 554.37 368.53 566.51 354.19 574.25 337.67 573.73"/><polygon class="cls-3" points="312.86 535.08 330.83 510.82 350.42 508.19 375.43 523.75 361.03 550.66 338.88 557.3 312.86 535.08"/><polygon class="cls-7" points="326.45 533.53 336.35 520.17 348.19 518.58 362.2 527.29 354.18 542.28 341.23 546.16 326.45 533.53"/><polygon class="cls-3" points="326.45 533.53 336.35 520.17 348.19 518.58 362.2 527.29 354.18 542.28 341.23 546.16 326.45 533.53"/><polygon class="cls-3" points="325.17 534.9 340.74 516.67 364.69 518.97 376.92 543.39 360.38 562.77 333.25 563.41 325.17 534.9"/><polygon class="cls-7" points="336.25 537.32 344.97 527.12 358.23 528.39 365.01 541.94 355.67 552.88 340.76 553.23 336.25 537.32"/><polygon class="cls-3" points="336.25 537.32 344.97 527.12 358.23 528.39 365.01 541.94 355.67 552.88 340.76 553.23 336.25 537.32"/><polygon class="cls-3" points="314.34 555.42 317 526.41 339.53 515.9 364.29 531.02 358.07 554.49 340.2 566.79 314.34 555.42"/><polygon class="cls-7" points="324.95 549.17 326.43 533.04 338.89 527.23 352.71 535.67 349.35 548.35 339.12 555.39 324.95 549.17"/><polygon class="cls-3" points="324.95 549.17 326.43 533.04 338.89 527.23 352.71 535.67 349.35 548.35 339.12 555.39 324.95 549.17"/><polygon class="cls-3" points="282.2 566.88 283.46 528.46 317.08 519.84 339.72 551.73 312.26 568.62 282.2 566.88"/><polygon class="cls-7" points="292.52 557.46 293.21 536.28 312.91 531.23 325.38 548.81 309.7 558.46 292.52 557.46"/><polygon class="cls-3" points="292.52 557.46 293.21 536.28 312.91 531.23 325.38 548.81 309.7 558.46 292.52 557.46"/><polygon class="cls-3" points="352.28 454.28 337.85 431.94 358.45 403.6 383.26 417.81 389.35 432.59 386.8 469.04 352.28 454.28"/><polygon class="cls-7" points="359.02 446.29 349.97 432.27 361.27 416.74 375.32 424.79 379.22 434.23 377.81 454.32 359.02 446.29"/><polygon class="cls-3" points="359.02 446.29 349.97 432.27 361.27 416.74 375.32 424.79 379.22 434.23 377.81 454.32 359.02 446.29"/><polygon class="cls-3" points="347.55 367.54 376.97 360.15 406.27 384.63 381.23 407.38 352.02 408.23 347.55 367.54"/><polygon class="cls-7" points="358.44 375.11 374.47 371.09 391.05 384.94 377.24 397.49 360.95 397.97 358.44 375.11"/><polygon class="cls-3" points="358.44 375.11 374.47 371.09 391.05 384.94 377.24 397.49 360.95 397.97 358.44 375.11"/></g><g class="cls-9"><path class="cls-5" d="m1215.89,126.35l-9.75-14.78,2.63-14.15,6.67-8.11.61-2.89-1.4-3.28-6.9-3.39-13.24-9.78.72-13.63,2.54-6.94-.23-11.28,10.69-10.69,9.89,1.12,10.93-9.38,4.04.78.79-1.48,2.93-2.08-1.55-1.74-8.75-15.76,14.76-12.38,12.17-2.61,12.76,7.6,8.96,3.96,15.71,1.62,3.01-.33,3.02-3.27-2.21-5.31-1.69-10.72,2.02-13.34,11.11-6.17,6.87-5.59.63-2.45-1.42-14,6.88-11.3,2.43-9.38-.42-12.11-6.61-9.35-9.79-14.17,7.89-13.04,6.2-13.64,11.8,2.36,12.36-9.34,33.52,29.12,35.47,33.04,30.68,19.75,25.4,5.77,22.88,6.66,10.61,9.48,14.38,1.15,7.19-4.49,7.2-8.28,7.29-3.19,13.71-12.43,12.7,6.65,4.73,12.15-12.95,19.22-3.46,8.13,6.63,11.36,10.84,13.37,7.5,21.59-26.04,5.62-13.8,10.56-5.37-1.69-.66,5.05-23.61-1.1-19.26-.6-23.47,10.14-21.13,21.41-1.66,15.26-16.46,18.22-44.9-19.87-46.12-22.9-8.83-2.31-17,6.01-11.08,5.64-10.04,9.61-6.56-.47,3.6,3.45,9.8,1.14,17.07,21.14-18.27,6.91-10.91,7.09-10.54-5.6-5.77.66-3.04-.45-2.86,2.12-1.47.39.25,6.9-12.12,5.87-4.46,1.11-4.92,8.47-21.76-6.44Zm52.42-62.79l-1.88-3.92-4.98-3.38-9.41.9-1.66,2.2,4.6,3.32,13.33.88Z"/><polygon class="cls-5" points="927.31 623.44 916.68 611 916.44 608.93 912.07 606.53 908.83 602.85 896.67 601.53 899.44 583.2 902.34 577.3 899.79 575.8 897.76 559.58 907.13 555.48 896.95 553.71 887.84 548.19 879.99 546.6 864.93 550.59 854.98 556.08 848 561.64 834.41 567.59 825.47 564.77 821.34 564.81 813.24 567.75 808.99 570.95 800.33 574.27 799.75 575.72 779.2 583.2 776.05 576.53 775.12 576.66 774.8 577.94 764.69 585.57 764.27 585.49 742.61 607.14 733.32 605.23 730.28 606.95 701.63 614.69 707.96 598.35 698.93 594.57 687.09 596.32 679.14 598.83 666.18 602.58 649.65 592.4 635.9 578.66 635.14 562.2 643.78 546.83 671.3 549.26 675.2 545.59 684.1 532.83 695.55 531.94 702.77 528.08 727.96 509.36 747.43 496.51 751.16 486.66 788.23 474.74 800.13 479.2 802.7 481.17 811.26 477.78 850.77 478.45 873.44 467.92 897.85 469.74 920.11 460.47 938.35 475.06 937.73 476.09 948.74 476.38 957.52 471.32 958.22 470.23 953.02 460.75 962.97 445.07 967.13 432.23 976.46 431.49 991.8 419.54 1003.9 402.31 1003.43 392.31 999.66 378.11 1009.4 362.32 1021.63 361.55 1037.62 354.54 1061.75 349.18 1064.44 375.16 1057.96 377.08 1058.61 388.44 1045.39 387.5 1044.56 388.31 1044.92 398.37 1044.81 398.68 1046.6 398.94 1049.84 393.78 1069.06 386.1 1095.53 377.87 1110.85 370 1132.1 351.38 1139.8 334.98 1161.3 325.4 1173.26 317.8 1174.11 308.33 1183.06 288.8 1193.63 278.46 1197.35 271.22 1204.33 249.55 1208.7 243.71 1212.61 231.54 1211.91 227.46 1204.34 229.06 1188.33 217.62 1190.82 192.65 1205 197.56 1206.74 194.77 1208.26 188.82 1204.53 183.92 1203.22 166.27 1213.02 147.08 1224.06 148.61 1226.19 147.86 1227.66 143.94 1226.42 133.58 1237.53 115.98 1254.2 120.43 1259.54 121.44 1262.05 112.12 1274.41 96.67 1293.39 105.4 1299.14 109.48 1305.7 110.62 1324.21 108.77 1318.13 141.56 1321.38 161.98 1325.98 162.04 1341.29 182.02 1346.08 195.05 1354.07 210.52 1360.61 238.48 1354.21 252.25 1343.68 275.58 1331.98 282.2 1330.35 285.33 1327.54 295.57 1328.22 321.23 1309.72 324.79 1301.21 319.78 1292 321.46 1291.92 321.44 1289.83 327.88 1289.14 337.4 1294.02 346.27 1297.51 367.93 1294.13 386.92 1291.81 397.47 1286.58 407.05 1279.76 410.71 1275.7 418.75 1272.49 426.3 1269.9 431.56 1270.84 440.48 1268.04 444.24 1269.74 450.76 1274.03 458.49 1279.94 466.6 1287.32 472.86 1283.18 488.03 1272.38 488.95 1265.51 489.26 1259.56 492.95 1255.79 497.53 1256.1 509.36 1248.52 519.86 1236.59 525.32 1233.14 525.13 1231.7 526.32 1226.85 529.22 1222.97 538.02 1205.59 538.62 1194.84 531.46 1193.18 522.76 1186.33 521.68 1184.71 514.5 1175 515.44 1174.61 515.9 1176.41 523.91 1172.54 537.69 1163.68 553.15 1144 559.89 1131.19 547.38 1130.68 533.99 1125.54 536.77 1124.72 540.48 1117.58 546.51 1110.95 559.54 1091.33 553.82 1059.14 553.63 1050.12 556.89 1039.41 558.48 1037.16 559.44 1037.24 562 1033.3 578.37 1015.68 580.74 1011.53 577.94 1001.32 580.85 997.36 582.08 997.36 591.25 988.41 598.09 983.02 601.39 974.5 617.77 961.57 626.79 949.53 628.45 927.31 623.44"/><polygon class="cls-5" points="535.67 641.19 541.04 628.67 545.72 621.9 551.46 615.38 561.92 607.82 570.29 613.71 577.58 618.84 571.15 630.63 569.39 636.26 566.36 640.5 560.38 646.29 550.16 648.44 535.67 641.19"/><polygon class="cls-5" points="558.79 630.07 551.46 624.92 571.32 588.72 574.51 620.86 576.64 642.54 558.79 630.07"/><polygon class="cls-5" points="620.94 773.81 617.26 773.29 614.83 768.72 611.52 768.77 598.92 769.43 592.84 758.71 588.19 756.72 586.43 743.27 596.71 735.63 591.1 731.42 590.94 719.27 592.39 716.04 590.5 709.79 585.6 711.07 578.32 699.89 577.66 692.88 578.34 686.43 565.89 684.03 560.25 669.16 564.43 666.57 563.13 665.38 559.44 658.04 556.88 651.51 557.59 644.68 551.11 638.36 551.98 630.01 553.92 625.01 554.72 624.03 552.57 601.25 568.89 612.72 574.32 602.71 586.77 602.37 588.9 603.59 593.15 600.55 606.16 593.72 608.27 595.64 608.08 594.67 619.91 581.96 626.04 581.55 629.72 579.22 640.53 576.94 645.34 578.97 648.48 575.5 664.66 580.2 665.2 594.06 666.55 598.09 668.96 598.29 674.08 600.15 675.69 600.06 680.93 593.82 700.87 595.33 710.92 608.72 710.66 620.88 710.25 621.56 723.51 621.89 720.4 634.32 734.39 645.39 732.35 646.72 739.12 650.33 725.87 660.92 723.18 668.11 712.08 676.49 710.36 677.69 711.54 681.42 705.22 690.9 701.3 696.17 695.5 711.21 693.2 720.68 694.69 727.55 690.46 740.9 684.12 757.92 670.97 761.91 666.28 765.55 659.83 772.6 647.16 778.07 640.28 782.22 625.54 784.72 620.94 773.81"/><polygon class="cls-5" points="770.84 675.24 758.96 674.73 735.23 669.25 740.85 662.51 725.19 646.18 733.8 637.84 729.4 635.98 729.31 636.09 697.81 637.2 712.01 615.86 720.04 609.73 731.48 605.69 736.06 604.96 742.81 599.9 748.69 596.58 749.59 592.12 755.1 579.61 762.88 574.36 768.85 562.96 783.79 568.85 789.78 576.24 790.27 576.86 798.25 573.34 806.11 574.9 793.34 555.67 819.66 557.2 823.26 558 834.17 549.43 845.01 550.25 857.22 551.34 867.17 557.69 875.21 560.4 891.51 562.25 890.66 578.61 897.28 586.03 897.17 604.01 884.07 610.96 872.57 618.56 866.6 627.15 859.01 650.21 841.99 636.51 834.32 627.88 826.68 625.61 820.46 626.07 813.21 631.9 808.24 633.6 808.16 636.39 799.74 645.62 791.21 655.25 793.96 664.49 781.58 677.17 770.84 675.24"/><path class="cls-5" d="m-318.98,919.89l-.17-9.72c-.02-1.32-2.27-133.26-3.9-264.12-.95-76.87-1.51-138.34-1.65-182.69-.08-26.38-.02-46.93.19-61.1.11-7.7.27-13.69.48-17.83.22-4.47.38-7.69,1.55-10.31,3.3-27.4,5.61-339.58,6.37-546.41l.04-9.96,1424.25-1.12-24.94,31.53-23.01,18.05-32.42,22.95-16.74,17.8-15.59,12.51-7.13,11.04-21.16,11.73-8.78,7.13-2.82,6.51-10.04,15.06-18.86,14.09-18.11,16.02-17.24,8.97-14.64,7.74-16.23,5.2-16.57,11.48-16.06,5.61-13.36.96-12.91,2.8-6.82,5.15-23.59.02-.26.23-.29-.23h-3.58s.53-2.44.53-2.44l-8.36-6.69-1.45-1.04-5.28.63-16.29,1.27-10.64-8.87-.21-11.48-10.97,5.07-13.04-2.99-1.32,1.47-14.09,14.1-13.16,16.45-19.1,1.59-12.61,12.98-18.06,4.01-19.54,12.68-19.04,19.7-.74,4.61,8.69,11.3-7.06,16.13-1.6,27.71h-12.11l-15.3,6.25-20.94,15.84-22.51,15.84-25.59,11.79-19.36,3.4-13.24,7.16-8.29,4.65-.88,9.33-1.81,10.95v1.09s11.78,5.96,11.78,5.96l26.35,17.57,18.46,15.59,22.64,37.33,33.36,41.19,12.68,39.86-2.7,27.32-.49,6.92h8.08s2.25,17.24,2.25,17.24l-4.5,6.12-1.95,8.67-2,14.27-2.78,7.29-5.55,7.88-9.09,11.97-16.64,11.83-9.1.94-13.92-.89-1.21-.68-5.23,1.74.43,18.48-18.92-7.76-4.91.4-1.32,6.56-10.64,4.56,1.29,4.37-20.27,6.04-11.01-6.08-11.77,13-19.27-.43-2.14-3.54-4.4,9.29-18.16,1.71-20.95-1.93-.51-14.11-.27-.81-16.61-6.48,6.62-22.47-3.48-10.96,9.37-24.94-9.55-1.84,23.78-19.91-.08-2.13-5.92-13.65-4.03-23.05-13.28-6.1-9.11-16.52,12-12.06,12.99-9.03,2.56.86,2.21-4.21,5.19-.07-.51-3.27,1.02-1.93-3.17-3.01-6.93-7.64-.03-2.59-1.95-.42-10.92-7.09-4.39-5.65-7.47-1.4-10.81-.93-.58-.71-8.55,6.07-13.39,7.29-29.16-4.1,5.23-5.73-.51-.03-16.47-11.34,1.83-2.49-20.09-7.81,13.19-20.52,8.78-14.31,6.93-8.73,2.29-20.5,8.9-11.94,5.05-6.71-4.74-5.26-5.11-2.2-13.43-5.13-1.65,2.45-16.37,1.55-4.96-10.76-8.78-4.9-3.2-3.88-5.37,4.86-31.45,1.1-25.53,7.58-13.32,1.84-14.44,3.97-15.51,8.76-12.42,3.72-7.38,5.89.87,3.55-11.2,11.4-8.32,2.49-9.39,6.62-3.76-1.84-8.11,7.74-14.67,3.14-7.21.59c-5.97,4.23-8.27,5.04-11.1,5.04-4.06,0-7.72-2.4-9.31-6.12-.81-1.88-1.05-2.45-1.38-16.72l-.15-6.57,23.34-10.74,3.04-1.08-.11-1.48-7.43.16-12.71-2.21-.98-8.12-3.66-.55,3.47-15.95,10.86-9.2,2.32-.12c.56-2.25,1.92-5.67,5.25-10.74l1.45-2.21,14.54-7.43,3.21.12,1.91-2.24,10.18-10.39,6.42-7.08,3.38-2.83-1.97-1.01-.42-5.21-9.98-5.06-5.35-2.22-5.78,1.26-11.73-2.55-10.38-2.11-3.76-.09-2.48,2.75-6.25,8.44-9.18,1.7-.88,2.98-11.98,8.93-13.25,19.87-11.29.3-18.81,6.99-4.83,4.14-15.31,3.89-5.4,1.58-4.14,5.17-5.27,3.27-2.76,5.15,4.35,10.15-11.32,8.49-10.11,7.7-15.67,8.99h-13.36l-9.12,1.16-14.96,7.87-13.28-6.82-7.27-5.82-1.71.08-5.95,4.56-3.58,5.72-5.42,6.6-.87,5.33,5.02,8.54,10.48,8.48,17.05,6.04,9.57,1.73,5.81,1.17,11.78-3.79,12.1-.03,13.11,5.94.83,7.16,3.66.89,4.14,6.72,4.61,1.97,8.69,10.35-2.34,19.35-15.03-1.45-1.73-.95-2.02,7.65.83.72,4.1,3.46,4.61,1.27,14.39.53,10.71-.12,1.45-7.35,6.05-5.16,10.64-3.83,16.63-12.85,8.64-5.67,19.24-7.62,22.02-1.22,4.9,7.06,1.38,1.4,9.57,2.47,1.34,3.98,7.65-5.55,9.67,12.55,1.11.99h1.09s17.16.75,17.16.75l7.19-4.56,15.01-1.62,6.3,7.64,2.42.52h18.75l14.2,8.28-6.79,23.59-3.34,2.89-2.06,17.81-10.41,2.99-9.22,4.06-9.4-.78-10.19-4.1-.34-.7-7.16.29-10.69,3.5-1.2,8.58-15.63-2.01-2.2,2.79-8.59-.07-13.84,5.85-.54.3-.69,2.74-4.52,8.35-9.69,5.83.34,10.54-17,4.43-10.2,3.51-1.95,2.48-11.75,8.74-1.86-.47-2,8.04-6.42,1.16-4.65,8.74-7.7-1.14-3.4,2.01-2.67-.3-1.52,3.38-6.88,9.05-3.33,2.29-2.14,4.22-4.2,10.99-2.92.75,6.26.9,6.89,5.7.38,4.16,1.28,1.07,3.94,2.77,4.85,1.28,4.12,1.87,14.46,3.09,4.13,4.44,5.65,1.3,8.8,4.77,4.62,11.31,4.99,12.69,3.35,9.17,5.73,5.4-.55,8.09,8.68,11.83.35,3.85,4.76,2.73,1.19,8.63,2.25,4.17,6.92,2.96-.07,21.03-1.3,3.66,1.03.36,6.38,4.12,18.98,7.53,6.83,9.56,1.54,8.41,6.56,2.06,4.92,2.63,3.53,2.71,6.49,4.82,7.52,8.87-.31,3.95,2.97,3.61-.77,7.96,3.04,4.68,3.32,10.51-11.1,9.14-4.66,1.05,6.67,8.24,8.02,12.88-3.6,11.16-8.83,5.64-19.84,1.55-6.21,1.24-3.88,1.77-8.09,5.76,10.12,4.61,9.98,12.03,5.59,6.89,6.6,1.81,5.46-3.88,5.89,5.66,14.88.44.26,21.58-11.22,3.55,2.6,3.51-1.58,6.75,2.34,2.85-3.08,7.2,7.57,7.68-6.86,5.2.47.66-6.3,15.39-7.47-.5-8.62,7.65v4.94s-11.29,1.93-11.29,1.93l-.05,4.55-382.32-4.16Z"/><polygon class="cls-5" points="345.53 641.42 336.37 627.71 348.45 610.7 362.86 605.82 376.17 602.45 391.32 601.35 398.39 605.06 410.88 612.78 407.15 627.19 399.3 634.5 390.07 639.4 376.13 643.39 358.19 644.81 345.53 641.42"/><polygon class="cls-5" points="337.67 573.73 336.53 555.73 345.46 545.87 355.68 540.5 367.04 543.88 374.94 554.37 368.53 566.51 354.19 574.25 337.67 573.73"/><polygon class="cls-5" points="326.45 533.53 336.35 520.17 348.19 518.58 362.2 527.29 354.18 542.28 341.23 546.16 326.45 533.53"/><polygon class="cls-5" points="336.25 537.32 344.97 527.12 358.23 528.39 365.01 541.94 355.67 552.88 340.76 553.23 336.25 537.32"/><polygon class="cls-5" points="324.95 549.17 326.43 533.04 338.89 527.23 352.71 535.67 349.35 548.35 339.12 555.39 324.95 549.17"/><polygon class="cls-5" points="292.52 557.46 293.21 536.28 312.91 531.23 325.38 548.81 309.7 558.46 292.52 557.46"/><polygon class="cls-5" points="359.02 446.29 349.97 432.27 361.27 416.74 375.32 424.79 379.22 434.23 377.81 454.32 359.02 446.29"/><polygon class="cls-5" points="358.44 375.11 374.47 371.09 391.05 384.94 377.24 397.49 360.95 397.97 358.44 375.11"/></g></g><g id="Front"><polygon class="cls-8" points="739.46 30.41 739.46 30.41 735.45 27.06 739.46 30.41"/><polygon class="cls-8" points="872.81 8.49 886.73 1.14 902.88 -7.27 886.73 1.14 872.81 8.49"/><polygon class="cls-8" points="797.31 34.49 813.07 31.07 819.44 30.61 813.07 31.07 797.31 34.49"/><polygon class="cls-8" points="733.71 5.81 735.18 12.63 733.71 5.81 733.71 5.81"/><polygon class="cls-8" points="760.45 28.4 765.26 31.88 760.45 28.4 760.45 28.4"/><polygon class="cls-8" points="770.6 36.15 775.01 32.28 775.01 32.28 770.6 36.15"/><polygon class="cls-8" points="61.34 365.12 61.33 365.12 56.98 365.13 56.98 365.13 61.34 365.12"/><polygon class="cls-8" points="47.8 355.54 47.68 355.38 43.47 358.44 43.78 358.46 47.8 355.54"/><polygon class="cls-8" points="89.61 361 96.64 360.24 96.61 360.21 89.28 361 81.42 365.99 81.74 366 89.61 361"/><polygon class="cls-8" points="98.8 404.75 96.89 400.81 96.58 400.88 98.46 404.75 103.67 406.85 109.03 407.3 109.09 407.28 104.01 406.85 98.8 404.75"/><polygon class="cls-8" points="-52.77 385.86 -46.46 380.71 -47.1 378.75 -49.32 376.03 -48.91 373.93 -46.89 372.21 -36.49 368.46 -18.92 354.88 -11.46 349.99 5.33 343.34 19.82 342.54 19.81 342.52 4.99 343.34 -11.8 349.99 -19.26 354.88 -36.83 368.46 -47.23 372.21 -49.25 373.93 -49.66 376.03 -47.44 378.75 -46.8 380.71 -53.1 385.86 -70.4 386.05 -70.33 386.05 -52.77 385.86"/><polygon class="cls-8" points="69.95 728.78 75.33 730.77 75.64 730.76 70.27 728.77 69.95 728.78"/><polygon class="cls-8" points="52.11 411.64 63.23 413.08 63.24 413.03 52.14 411.6 52.11 411.64"/><polygon class="cls-8" points="10.64 431 10.52 431.13 12.98 432.7 15.46 436.73 15.71 436.58 13.32 432.7 10.64 431"/><polygon class="cls-8" points="88.71 396.82 89.15 401.95 89.48 401.93 89.04 396.73 88.71 396.82"/><rect class="cls-8" x="46.41" y="412.25" width="0" height="5.44" transform="translate(-368.95 457.75) rotate(-89.5)"/><polygon class="cls-8" points="58.63 739.73 46.44 733.85 42.76 730.57 39.22 728.38 35.61 723.89 33.18 723.73 27.88 722.89 22.03 722.62 20.14 721.69 19.97 718.63 17.93 714.9 12.85 710.55 9.74 708.88 4.57 707.2 -1.59 706.56 -6.21 705.97 -6.3 706.01 -1.93 706.56 4.23 707.2 9.4 708.88 12.51 710.55 17.6 714.9 19.64 718.63 19.81 721.69 21.69 722.62 27.54 722.89 32.84 723.73 35.27 723.89 38.88 728.38 42.42 730.57 46.1 733.85 58.29 739.73 67.6 742.55 76.64 746.65 76.87 746.6 67.94 742.55 58.63 739.73"/><polygon class="cls-8" points="760.78 28.4 760.49 28.44 765.26 31.88 770.6 36.15 770.76 36.01 765.59 31.88 760.78 28.4"/><polygon class="cls-8" points="53.31 246.86 59.46 248.49 59.74 248.48 53.63 246.85 53.31 246.86"/><path class="cls-8" d="m35.31,276.54l16.97-7.81,4.34-1.54,5.78-1.54,4.34-3.18-2.12-1.16-2.99-2.22-.39-5.11,2.31-1.64,6.27-1.06,2.51-4.34-.39.09-2.45,4.25-6.27,1.06-2.31,1.64.39,5.11,2.99,2.22,2.12,1.16-4.34,3.18-5.78,1.54-4.34,1.54-16.97,7.81s.29,12.34.58,13.01c.03.08.16.07.35,0,0,0-.01,0-.01,0-.29-.67-.58-13.01-.58-13.01Z"/><polygon class="cls-8" points="735.52 12.63 734.05 5.81 733.73 5.92 735.18 12.63 735.45 27.06 739.46 30.41 739.77 30.38 735.79 27.06 735.52 12.63"/><polygon class="cls-8" points="715.87 2.72 706.6 1.94 706.58 1.97 715.54 2.72 705.11 13.03 713.26 14.9 713.37 14.85 705.45 13.03 715.87 2.72"/><polygon class="cls-8" points="74.92 271.07 79.61 273.36 79.74 273.27 75.03 270.95 74.92 271.07"/><polygon class="cls-8" points="775.35 32.28 775.26 32.36 780.49 34.02 779.43 38.96 779.76 38.96 780.83 34.02 775.35 32.28"/><path class="cls-8" d="m-308.81,910s-9.11-532.91-4.05-531.9c5.06,1.01,7.09-550.35,7.09-550.35l1393.28-1.1h0s-1393.61,1.1-1393.61,1.1c0,0-2.02,551.36-7.09,550.35-1.19-.24-1.59,28.85-1.52,73.54,0,2.98.01,6.03.02,9.14,0,1.56,0,3.13.01,4.72.01,3.18.02,6.42.04,9.72.05,11.55.13,23.83.22,36.65.03,3.66.06,7.37.09,11.12s.06,7.54.09,11.37c.03,3.83.07,7.69.1,11.59.05,5.85.11,11.76.17,17.74s.12,12.02.19,18.1c.04,4.06.09,8.13.13,12.23.07,6.14.14,12.32.21,18.52.07,6.2.15,12.42.22,18.66.1,8.31.2,16.64.31,24.95.03,2.08.05,4.15.08,6.23.08,6.23.16,12.44.24,18.62.11,8.25.22,16.45.33,24.56.06,4.06.11,8.1.17,12.11.06,4.01.11,8,.17,11.97s.11,7.9.17,11.8c.31,21.46.61,41.93.89,60.75.21,13.68.41,26.49.59,38.16.66,42.3,1.13,69.66,1.13,69.66l372.6,4.05,1.24,3.54v-.97s-.9-2.57-.9-2.57l-372.6-4.05Z"/><polygon class="cls-8" points="77.04 205.17 87.12 194.89 93.2 188.18 102.23 180.62 104.95 174.75 97.19 170.76 96.77 165.51 81.45 157.75 72.85 154.18 72.63 154.23 81.11 157.75 96.43 165.51 96.85 170.76 104.62 174.75 101.89 180.62 92.86 188.18 86.78 194.89 76.71 205.17 71.89 210.83 72.22 210.84 77.04 205.17"/><polygon class="cls-8" points="45.15 151.24 35.91 151.03 35.91 151.04 44.81 151.24 56.14 153.55 65.79 155.65 65.96 155.61 56.48 153.55 45.15 151.24"/><path class="cls-8" d="m39.94,243.1l3.86-4.43-5.11-.77.48-2.22,5.69-4.82,5.78-.29,5.01-2.41-2.74-4.09c0-2.32,3.99-8.39,3.99-8.39l9.84-5.02h-.31s-9.86,5.02-9.86,5.02c0,0-3.99,6.07-3.99,8.39l2.74,4.09-5.01,2.41-5.78.29-5.69,4.82-.48,2.22,5.11.77-3.86,4.43.39,3.18,4.43.77h.3s-4.4-.77-4.4-.77l-.39-3.18Z"/><path class="cls-8" d="m797.31,34.49l15.76-3.41,6.37-.46,6.37-.46,13.52-4.73,16.68-11.55,16.81-5.38,13.92-7.35,16.15-8.4,17.5-15.48,17.81-13.3,8.58-12.87,3.43-7.94,5.69-4.61,5.69-4.61,19.74-10.94,6.65-10.3,16.3-13.09,16.95-18.02,33.04-23.38,21.88-17.16,11.37-14.37-1393.28,1.1s-2.02,551.36-7.09,550.35c-5.06-1.01,4.05,531.9,4.05,531.9l372.6,4.05.9,2.57-.02-9.85-7.05-3.69h0,0l.57.12-.23-.12,10.01,2.14,1.61-1.43,1.68-1.49-2.79-6.16-4.35-4.1-12.15-1.03,3.99-1.86,2.12-3.68,1.88-1.83.3.04.04-.04,1.62.19,3.37,5.68,5.88.08,2.21-3.97v.6s.34-.6.34-.6v6.35s4.1,2.02,4.1,2.02l3.68.82,2.76.19,1.48-3.61-2.26-3.18,1.16-1.56,1.16-1.56,2.56-1.94-1.89-1.92-1.94.02h0s-.34,0-.34,0l-.16-6.53,2.51-1.71.86-2.01-2.81-3.43-.39-.8-.39-.8,3.12-1.86.5-2.13-1.39-1.88-2.67-2.45-6.67,1.77-6.15,4.74.31-.5-.64.5h0,0l1.57-2.54,1.57-2.54,4.62-2.18,4.96-5.8,3.5-2.07,5.86-2.22,4.47-1.42-.06-4.58-4.21-.12-3.78.64-.05-.05-.29.05-3.38-3.24-2.27,1.61-.25-.06-.09.06-3.65-.89-10.74-2.94-7.62-9.39-8.44-10.18-6.32-2.88-10.11.27-3.63,1.7-4.56,4.93-4.11,1.63-8.78,1.85-.08-.05-.26.05-3.78-2.5-4.41-3.12-1.91-3.8-.71-2.6.38.14-.04-.14,3.75,1.37,3.05,5.18,2.14.77,3.16-1.52,1.48-3.41s3.56-4.36,3.98-3.73c.04-.02.09-.04.12-.05.07-.73-.3-4.17-.3-4.17l2.47-2.36,4.8-2.71,4.99-.38,2.08-3.76,3.33-2.03,5.16-.71,7.29-5.19,5.8-2.65,7.93-1.58,17.94-1.4,3.69-2.36,1.07-3.32-5.24-8.41-12.93-15.99-4.55-1.81-10.1-4.49-3.8-3.64-3.36-.79-4.78-4.85-.94-2.75-6.58-4.04-1.98-2.29-6.99-2.63-12.9-2.88-1.23-6.63-3.99-6.25-15.36-2.34-2.38,1.66-2.41,2.22h-.33s0,0,0,0l-4.47-.11,2.64-2.75,3.4-1.4,4.2-1.59.25.03.09-.03,4.62.59,6.16.64,5.17,1.68,3.11,1.67,5.09,4.35,2.04,3.73.17,3.06,1.88.93,5.85.27,5.3.84,2.43.16,3.6,4.49,3.54,2.19,3.68,3.27,12.19,5.88,9.3,2.82,8.93,4.05,7.07-1.59,4.05-3.33-.88-2.77-1.38-2.12-6.61-3.04-12.13-1.93-4.09-2.88,7.03-.17h.02s.32,0,.32,0l5.37,1.99,5.19-.2,2.42-1.76.36-3.69-2.9-3.52.3-3.87-4.12-4.86-5.63-4.18-2.94-2.26-3.37-1.8-5-1.57-7.07-.15-.17-2.86-3.2-2.57,2.9-2.57-1.1-6.01-3.82-5.35-17.15-6.8-6.21-4.01-4.63-1.63-3.39-5.52,2.73-7.66.04-12.7-4.04-1.73-4.77-8.83-.77-5.56-5.02-2.88-.56-6.27-9.2-12.53.47-7.02-4.02-3.78-4.17-11.4-4.91-12.46-3.22-7.89-4.46-2.42-7.31-1.68-4.07-4.37-12.44-2.66-4.34-1.97-5.77-1.52-5.73-4.04-4.78-3.97-.38-4.15-1.53-1.26-9.41-1.36-5.77.39v-.02s-.34.02-.34.02l.99-16.55,7.9-2.03,2.54-6.65,3.54-6.96,4.11-2.82,5.22-6.86,3.19-7.09,3.4-1.62.27.03.06-.03,3.77.42,3.52-2.07.27.04.07-.04,3.9.58,3.59-6.74,4.83-.87,1.82-7.31,3.07-3.69.28.07.06-.07,4.71,1.19,6.78-5.04,2.94-3.75,13.36-4.59,9.64-2.51-.14-4.24-2.25-5.44,3.3-2.25.61-5.28,2.62-2.7.21.13.13-.13,2.68,1.7,2.39,3.88,2.56-1.54,2.62-4.84,1.42-5.67,4.76-2.71,16.29-6.88h.33s0,0,0,0l5.43.05,2.67-3.38.31.04.03-.04,11.1,1.43.81-5.83,6.31-1.19,11.15-3.66,2.85-4.51,4.33-1.1v.08s.34-.08.34-.08l.44,5.2,2.57-.1,4.49-1.02.03.07.3-.07,1.91,3.94,5.21,2.1,5.07.42,7.46-3.29,4.66-1.34.93-8.05-5.05-2.02.37-3.06,5.64-2.05,3.89-3.37,3.81-13.26-5.14-3h-17.12l-6.85-1.48-5.05-6.12-7.02.76-7.87,5h-.32s-.02,0-.02,0l-20.07-.88h-4.35s0,0,0,0h-.34s-4.65-4.15-4.65-4.15l-4.19-5.44-4.03,2.92-.31-.02-.03.02-8.34-.57-2.16-6.41-6.99-1.8-3.93-3.97-2.2-3.16-14.49.8-16.78,6.65-7.47,4.89-17.56,13.58-10.4,3.75-2.02,1.72-.41,2.1,2.22,2.72.63,1.96-6.3,5.15-17.56.19h-.08s-.26,0-.26,0l-15.8-.59-7.84-2.16-5.83-4.91-4.09-3.55-.42-5.38,3.11-11.76,3.48-6.02,4.61-1.23.11.06.23-.06,5.75,3.18,2.92.28.64-5.31-4.37-5.2-5.33-2.28-3.65-5.92-4.36-1.06-2.51-4.21-.55-4.75-5.98-2.71-8.04.02-7.67,2.47-1.98,2.27-.29-.06-.05.06-11.49-2.31-10.17-1.84-19.43-6.89-13.22-10.7-7.76-13.22,1.89-11.54,6.72-8.18,4.2-6.72,9.86-7.55,8.6-.42.02.02.32-.02,9.44,7.55,7.59,3.9,11.79-6.21,11.54-1.47h11.33l12.8-7.34,9.65-7.34,5.04-3.78-3.15-7.34,6.3-11.75,6.09-3.78,5.04-6.3,8.6-2.52,13.22-3.36,4.41-3.78,22.03-8.18,7.76-.21,5.88-8.81,5.46-8.18,10.7-7.97,1.68-5.67,11.33-2.1,4.2-5.67,5.88-6.51h.33s0,0,0,0l9.23.21,11.33,2.31,9.48,2.06,6.55-1.43.12.05.22-.05,8.6,3.57,15.32,7.76.42,5.25,7.76,3.99-2.73,5.88-9.02,7.55-6.09,6.72-10.07,10.28-4.83,5.67h-.33s-.01,0-.01,0l-5.14-.2-9.84,5.02s-3.99,6.07-3.99,8.39l2.74,4.09-5.01,2.41-5.78.29-5.69,4.82-.48,2.22,5.11.77-3.86,4.43.39,3.18,4.4.76,8.57-.19h.03s.31,0,.31,0l6.11,1.62,7.24-.37,5.01-1.16-.05.09.39-.09-2.51,4.34-6.27,1.06-2.31,1.64.39,5.11,2.99,2.22,2.12,1.16-4.34,3.18-5.78,1.54-4.34,1.54-16.97,7.81s.29,12.34.58,13.01c0,0,.01,0,.01,0,1.49-.48,7.27-4.73,7.27-4.73l9.35-.77,11.28-2.41,6.27-5.98,4.63-4.72.23.11.11-.11,4.72,2.31,5.74-4.05,7.42-2.22,5.49-5.59-1.06-4.34,13.88-11.09,13.21-3.95,15.61-8.82,16.27-4.47,13.22-1.83,26.03-7.73,29.08-1.02,10.78-9.76,75.53-39.74,105.02-12.36,135.52-1.16h22.78l1.16-20.08,5.41-12.36-7.72-10.04,1.93-11.97,22.01-22.78,22.01-14.29,16.9-3.75,13.14-13.52,18.55-1.55,10.82-13.52,14.3-14.3,7.66-8.54,1.15-1.28,4.71-5.25.31.03.02-.03,9.27.77-10.43,10.31,7.93,1.82,8.84-4.09,3.34-2.27,8.15-2.67.02.1.32-.1,1.47,6.82.27,14.44,3.98,3.32,11.72-.91,8.96-1.07.05.03.29-.03,4.81,3.48,5.17,4.14,4.25-3.73.25.08.09-.08,5.48,1.74-1.07,4.95h11.64s5.91-4.47,5.91-4.47Z"/><g id="Japan"><polyline class="cls-6" points="1338.33 45.69 1385.18 68.95 1423.26 85.8 1432.7 75.35 1434.38 59.85 1459.32 34.57 1486.62 22.78 1508.19 23.45 1522.69 24.12 1523.7 16.37 1535.49 20.08 1546.95 11.32 1564.14 7.61 1560.92 -1.65 1550.7 -14.26 1541.16 -30.62 1546.95 -44.25 1557.52 -59.92 1556.04 -63.71 1552.84 -65.38 1543.09 -56.54 1536.36 -53.6 1529.66 -45.9 1518.41 -38.87 1497.38 -40.55 1485.95 -50.75 1465.53 -56.7 1438.71 -62.79 1405.8 -83.97 1369.8 -117.5 1342.53 -141.19 1333.04 -134.03 1324.62 -135.72 1321.46 -128.76 1316.61 -120.76 1322.72 -111.91 1330.99 -100.21 1331.57 -83.67 1328.41 -71.45 1322.51 -61.76 1323.77 -49.33 1321.88 -41.95 1311.76 -33.73 1304.18 -29.52 1303.12 -22.57 1304.39 -14.56 1308.6 -4.45 1298.7 6.3 1290.9 7.14 1272.57 5.25 1261.61 .4 1251.71 -5.5 1245.81 -4.23 1239.28 1.24 1243.49 8.83 1251.71 18.1 1241.6 25.26 1238.44 31.16 1231.91 29.9 1221.34 38.97 1211.91 37.9 1207.64 42.17 1207.82 51.07 1205.15 58.37 1204.79 65.13 1212.98 71.18 1222.41 75.8 1226.5 85.41 1224.72 93.77 1218.14 101.78 1216.71 109.43 1222.23 117.79 1232.95 120.97 1236.05 115.64 1243.61 113.75 1248.93 111.17 1248.63 102.81 1255.97 100.87 1260.61 97.43 1266.45 98.29 1274.01 97.43 1282.09 101.73 1288.96 97.26 1295.31 94.85 1289.49 87.64 1280.4 86.58 1270.58 77.16 1267.31 73.51 1251.46 72.46 1236.26 61.48 1246.71 47.61 1264.1 45.96 1274.29 52.88 1279.34 63.42 1284.15 63.76 1292.05 56.2 1305.02 49.59 1325.54 42.35"/><polygon class="cls-6" points="1344.62 214.01 1336.91 199.08 1332.43 186.9 1320.99 171.97 1312.83 171.85 1307.98 141.43 1311.95 120.04 1305.33 120.7 1295.19 118.94 1288.36 114.09 1277.34 109.02 1271.16 116.74 1267.42 130.63 1268.3 138.12 1280.42 134.15 1289.65 133.95 1294.09 128.64 1298.06 134.37 1295.63 144.73 1290.34 151.35 1278.44 144.73 1271.16 146.5 1270.5 152.45 1262.79 152.45 1260.14 131.73 1251.98 130.18 1242.06 127.54 1236.77 135.92 1237.88 145.18 1233.91 155.76 1225.09 158.84 1218.7 157.96 1213.4 168.32 1214.29 180.23 1219.14 186.62 1216.05 198.75 1211.64 205.8 1205.25 208.23 1199.52 206.24 1198.85 212.85 1206.57 218.37 1213.85 216.82 1220.68 219.47 1222.88 232.25 1217.71 248.36 1213.33 254.2 1206.62 275.06 1201.78 284.47 1191.38 294.65 1183.92 310.93 1182.78 323.6 1166.05 334.23 1147.27 342.6 1140.26 357.53 1116.51 378.34 1099.32 387.16 1072.41 395.53 1056.57 401.86 1051.6 409.78 1031.47 406.84 1034.86 396.88 1034.41 384.22 1041.65 377.21 1047.98 377.66 1047.53 369.74 1053.63 367.93 1052.96 361.37 1040.74 364.09 1024.03 371.42 1015.19 371.97 1010.43 379.69 1013.37 390.78 1014.05 405.25 999.12 426.51 980.24 441.22 974.58 441.67 972.1 449.36 964.63 461.12 969.83 470.62 964.63 478.76 951.29 486.45 934.32 486 922.56 489.62 921.2 484.19 925.28 477.41 918.49 471.98 899.49 479.89 875.29 478.08 852.9 488.49 813.09 487.81 801.1 492.56 795.22 488.04 787.98 485.32 758.8 494.71 755.64 503.08 733.7 517.55 708.14 536.55 698.41 541.75 689.59 542.43 682.81 552.16 674.89 559.62 649.33 557.36 645.26 564.6 645.71 574.32 655.89 584.5 667.65 591.74 676.25 589.25 684.84 586.54 700.22 584.28 720.81 592.87 719.09 597.31 718.09 599.88 726.46 597.62 731.66 594.68 739.35 596.26 742.41 593.21 746.88 588.74 743.71 587.39 736.99 589.44 730.61 587.18 730.83 577.48 735.85 570.4 739.25 563.75 747.32 563.53 749.02 571.18 753.84 573.37 762.19 574.93 765.94 572.1 767.22 566.93 772.53 566.93 781.94 565.59 784.35 570.68 792.14 567.85 794.47 562.05 796.53 565.02 804.1 562.12 808.42 558.86 819.53 554.82 826.97 554.75 833.84 556.93 842.79 553 849.41 547.73 861.17 541.24 879.68 536.34 891.54 538.73 900.52 544.18 913.88 546.51 924.91 541.85 930.18 542.1 930.3 550.55 922.46 560.11 912.53 564.04 908.61 565.75 909.1 569.67 913.27 572.13 912.65 578.99 909.1 586.22 908.12 592.72 913.76 593.33 918.41 598.6 925.77 602.65 926.26 606.81 932.75 614.41 949.96 618.29 957.82 617.21 966.76 610.97 975.43 594.31 982.75 589.83 987.36 586.31 987.36 579.54 988.85 574.25 998.47 571.27 1009.85 568.02 1013.11 566.93 1018.12 570.32 1025.18 569.37 1027.2 560.97 1027.06 556.63 1025.71 550.26 1022.19 550.54 1017.17 553.52 1009.72 546.47 1002.81 546.61 1002.54 536.31 1008.5 530.75 1011.34 522.08 1019.2 521.67 1018.8 528.72 1019.34 533.06 1021.91 539.7 1027.74 542.54 1030.18 539.42 1035.74 537.26 1044.27 536.71 1049.83 535.36 1045.49 541.46 1039.12 544.3 1034.79 541.59 1031.67 547.15 1032.21 550.67 1036.68 548.77 1047.66 547.15 1057.42 543.62 1092.79 543.83 1105.79 547.62 1109.59 540.17 1115.69 535.02 1116.77 530.14 1125.04 525.67 1129.37 517.67 1142.52 515.64 1142.52 520.38 1140.49 528.79 1141.03 543.02 1146.58 548.44 1156.88 544.91 1163.25 533.8 1166.1 523.64 1163.79 513.34 1169.89 505.89 1186.69 504.26 1193.34 507.31 1194.59 512.85 1199.03 513.55 1204.85 507.45 1203.74 503.84 1199.03 501.21 1201.11 494.28 1205.54 491.78 1207.76 488.04 1208.31 483.46 1216.63 480.97 1221.62 483.33 1223.84 486.79 1219.68 491.51 1213.72 495.11 1209.42 497.74 1207.9 501.35 1207.9 513.55 1208.31 521.86 1203.32 522.56 1203.88 525.47 1208.45 528.52 1216.36 528.24 1218.99 522.28 1225.92 518.12 1229.8 514.93 1234.67 515.2 1241.96 511.87 1246.02 506.25 1245.7 494.07 1252.89 485.32 1262.46 479.39 1271.73 478.97 1275.37 478.66 1276 476.37 1272.56 473.45 1265.59 463.88 1260.38 454.51 1257.15 442.12 1260.49 437.64 1259.65 429.73 1263.4 422.13 1266.63 414.53 1272.25 403.4 1279.22 399.65 1282.35 393.92 1284.32 384.97 1287.37 367.85 1284.42 349.58 1278.95 339.63 1279.94 325.95 1282.93 316.74 1286.16 310.03 1292.13 311.27 1303.08 309.28 1311.53 314.25 1318 313.01 1317.5 294.35 1320.99 281.67 1324.47 274.95 1335.91 268.49 1345.11 248.09 1350.09 237.39 1344.62 214.01"/><polygon class="cls-6" points="655.84 751.77 655.86 751.43 655.69 751.75 655.84 751.77"/><polygon class="cls-6" points="562 620.1 558.23 622.83 553.61 628.07 549.83 633.53 548.57 636.47 551.51 637.94 555.5 637.1 558.75 633.95 560.32 631.75 561.9 626.71 564.53 621.88 564.34 621.74 562 620.1"/><polygon class="cls-6" points="564.53 621.88 564.56 621.9 564.56 621.84 564.53 621.88"/><polygon class="cls-6" points="717.3 644.61 713.07 641.27 709.2 637.92 710.78 631.58 703.56 631.4 701.36 629.82 685.68 630.62 685.35 626.74 688.33 627.06 693.84 624.86 697.54 623.43 700.71 618.05 700.84 611.96 695.59 604.96 685.29 604.18 680.56 609.82 672.58 610.24 666.81 608.14 659.15 607.51 655.27 595.87 654.95 587.79 651.7 586.85 647.71 591.25 644.25 589.36 639.53 587.37 633.55 588.63 629.25 591.36 624.53 591.67 618.86 597.76 619.6 601.53 616.97 607.09 611.41 609.82 607.01 608.04 604.6 605.83 598.41 609.09 595.47 611.18 596.1 614.75 592.43 617.48 588.44 618.42 588.65 614.96 584.24 612.44 580.36 612.55 577 618.74 579.42 622.51 579.31 625.14 574.38 623.77 565.88 622.83 565.47 622.54 564.56 621.9 564.84 624.84 564.13 628.32 562.67 630.11 561.78 632.38 561.56 634.58 562.59 635.59 567.74 636.42 569.33 638.31 568.14 639.9 567.08 650.13 568.58 653.96 571.24 659.26 573.04 660.91 575.79 660.88 577.97 663.71 577.76 667.47 575.88 671.24 572.52 673.32 573.26 675.27 577.09 676.01 580.45 672.85 585.96 669.29 588.04 665.46 594.22 663.51 596.44 661.7 602.09 662.03 602.02 664.18 599.67 667.14 596.78 667.88 597.11 670.5 602.02 673.65 606.65 671.77 609.54 669.89 613.91 669.22 614.65 664.05 615.12 661.96 612.43 655.38 605.71 654.64 600.67 655.98 604.57 651.42 605.23 648.8 603.58 645.51 600.74 642.68 601.62 640.2 605.24 637.84 610.08 638.92 614.65 642.28 616.33 651.15 618.61 653.7 624.19 658.2 625.94 660.49 626.34 665.26 621.57 668.88 615.19 671.84 615.12 675.07 612.37 677.48 606.39 679.63 603.7 680.24 601.82 675.67 597.05 675.47 590.4 677.28 590.46 681.65 588.72 683.46 587.71 692.94 588.04 696.5 590.05 699.57 594.4 698.43 600.16 693.88 605.12 688.58 606.53 686.31 611.42 686.17 613.97 688.58 615.71 686.98 618.32 682.69 620.73 678.53 619.59 674.58 621.87 671.63 628.91 670.56 628.71 672.97 625.89 674.91 624.35 680.54 623.48 685.1 617.65 691.93 612.96 697.96 610.62 702.52 607.6 702.59 605.59 701.05 602.78 701.85 600.97 705.87 600.63 708.75 601.91 712.97 603.58 715.52 600.97 721.35 601.03 726.37 610.49 733.47 610.49 741.71 605.69 747.11 600.11 745.57 597.11 747.8 597.36 749.77 602.17 751.83 601.65 753.98 604.57 759.12 611.18 758.78 620.78 758.61 623.7 764.1 628.59 764.78 632.02 761.35 632.97 756.89 627.3 752.17 624.56 745.31 625.76 740.16 628.68 738.45 633.57 739.73 633.05 743.34 636.66 747.03 639.74 752.17 639.23 756.12 637.43 760.58 636.83 764.53 633.57 766.59 630.31 770.28 631.68 773.54 636.74 772.68 642.58 769.16 653.9 764.27 659.48 758.18 662.56 755.78 659.13 751.14 655.87 751.4 655.86 751.43 655.84 751.77 655.69 751.75 654.16 754.75 653.81 757.06 649.35 757.84 649.33 757.94 648.54 761.68 648.41 763.67 643 764.96 638.71 766.33 640.86 761.87 645.23 760.07 651.47 753.81 652.75 751.37 655.69 751.75 655.86 751.43 656.07 747.7 660.48 744.16 666.3 745.57 668.24 749.4 671.68 751.24 676.48 749.79 681.01 737.64 684.35 727.07 682.94 720.55 685.94 708.22 692.46 691.3 697.04 685.14 700.56 679.85 698.62 673.69 706.2 668.4 714.83 661.88 717.48 654.83 721 652.01 712.72 647.61 717.3 644.61"/><polygon class="cls-6" points="881.03 571.12 873.03 570.21 862.82 566.78 853.9 561.09 844.12 560.21 837.29 559.69 825.71 568.79 818.27 567.14 812.75 566.82 817.95 574.65 817.02 581.12 809 585.67 799.4 583.76 792.26 586.92 786.08 587.76 781.89 582.39 777.68 577.19 773.54 575.56 770.56 581.23 763.09 586.28 759.18 595.16 757.58 603.04 748.29 608.29 740.08 614.45 733.95 615.42 731.85 616.16 724.85 618.64 719.41 622.8 716.93 626.52 724.76 626.24 727.92 622.78 734.63 621.26 740.7 619.88 740.68 625.92 739.69 629.47 745.33 631.85 747.77 632.88 744.24 641.65 739.29 646.44 748.56 656.1 758.98 656.38 753.32 663.17 760.31 664.78 771.94 665.28 778.13 666.39 782.7 661.71 780.43 654.06 780.63 644.65 786.07 645.98 792.3 638.94 798.28 632.38 798.47 626.38 808.31 623 816.61 616.33 827.77 615.5 839.9 619.11 848.91 629.25 854.02 633.37 857.55 622.64 865.46 611.28 878.96 602.35 887.2 597.98 887.25 589.82 880.46 582.2 881.03 571.12"/></g><g id="Korea"><polygon class="cls-2" points="479.75 286.35 479.75 286.35 492.56 297.16 479.75 286.35"/><polygon class="cls-2" points="487.26 530.17 494.2 533.01 494.2 532.87 487.54 530.14 487.26 530.17"/><polygon class="cls-2" points="371.86 558.34 369.64 551.72 357.23 546.88 358.84 541.4 358.55 541.24 356.89 546.88 369.3 551.72 371.53 558.34 371.77 565.11 383.03 566.15 383.2 566.13 372.11 565.11 371.86 558.34"/><polygon class="cls-2" points="452.54 530.98 452.95 532.37 456.94 539.8 462.43 543.67 462.64 543.58 457.28 539.8 452.54 530.98"/><polygon class="cls-2" points="436.28 539.62 434.21 533.46 434.01 533.89 435.94 539.62 444.1 547.67 450.96 551.46 451.18 551.39 444.44 547.67 436.28 539.62"/><polygon class="cls-2" points="409.52 551.78 412.39 544.47 412.01 544.59 409.18 551.78 413.46 558.85 422.67 559.06 422.67 559.05 413.79 558.85 409.52 551.78"/><polygon class="cls-2" points="370 540.69 360.91 526.48 358.76 519.71 368.75 493.13 382.41 489.09 370.56 486.81 381.95 477.27 381.63 468.37 375.43 454.07 370.34 424.94 365.7 424.72 355.64 420.1 351.74 413.04 357.82 406.93 365.84 401.36 365.61 401.28 357.48 406.93 351.41 413.04 355.3 420.1 365.36 424.72 370 424.94 375.09 454.07 381.29 468.37 381.61 477.27 370.22 486.81 382.07 489.09 368.41 493.13 358.42 519.71 360.57 526.48 369.66 540.69 366.27 545.28 366.51 545.41 370 540.69"/><path class="cls-2" d="m375.22,396.77l6.32-.09,8.37-.02-4.88-6.23-.81-5.18,3.03-5.7-8.42-7.99-4.13-4.55-.08-6.77-7.95-1.71-7.96-5.17-4.18-5.38c-.06.06-.13.12-.19.19l4.04,5.2,7.96,5.17,7.95,1.71.08,6.77,4.13,4.55,8.42,7.99-3.03,5.7.81,5.18,4.88,6.23-8.37.02-6.32.09-3.36,6.38.29.1,3.41-6.48Z"/><polygon class="cls-2" points="561.58 453.21 565.05 453.21 565.05 453.21 561.24 453.21 556.11 455.21 556.15 455.32 561.58 453.21"/><polygon class="cls-2" points="507.41 515.12 507.31 515.25 513.47 518.7 524.28 519.39 524.41 519.38 513.8 518.7 507.41 515.12"/><path class="cls-2" d="m555,453.33l1.27-17.9,2.51-25.41-11.49-36.1-32.6-40.25-22.15-36.52-12.81-10.81c-5.5,1.36-7.89,3.74-9.05,5.65-2.6,4.28.02,7.66-2.85,12.6-1.77,3.05-5.17,5.89-9,6.6-2.68.49-7.7.34-10.35-.75-.33-.14-.91-.4-1.65-.3-1.74.25-2.18,2.26-3.3,2.25-1.1,0-1.03-1.93-2.55-2.85-2.19-1.33-4.18,1.55-8.7,1.05-1.99-.22-2.54-.89-3.9-.45-2.1.67-1.98,2.61-3.6,3-2.54.62-4.59-3.7-7.2-3-1.25.34-1.14,1.43-2.55,1.8-1.87.49-2.96-1.19-5.1-1.65-2.5-.53-4.7.98-7.65,3-1.35.93-5.26,3.61-6.9,8.25-.46,1.31-.27,1.42-.75,2.4-1.45,2.92-3.62,2.76-6,5.55-2.09,2.44-1.19,3.47-3.08,4.88-2.32,1.73-4.17.53-5.47,2.1-1.13,1.35-.1,2.66-.45,6.83-.25,2.91-.45,5.29-2.1,6.6-2.36,1.88-6.32.46-6.97.23-4.1-1.47-4.29-4.35-7.88-5.03-2.58-.49-4.75.58-5.55.97-1.06.52-1.93,1.19-2.65,1.92l4.18,5.38,7.96,5.17,7.95,1.71.08,6.77,4.13,4.55,8.42,7.99-3.03,5.7.81,5.18,4.88,6.23-8.37.02-6.32.09-3.41,6.48-.29-.1-.05.1-5.64-1.89-8.02,5.57-6.07,6.1,3.9,7.07,10.06,4.62,4.64.22,5.09,29.13,6.2,14.29.32,8.9-11.39,9.54,11.85,2.28-13.67,4.04-9.98,26.58,2.15,6.77,9.09,14.21-3.49,4.73-.24-.13-.1.13-7.33-4.01-1.61,5.48,12.42,4.84,2.22,6.62.24,6.77,11.09,1.02,11.4-1.08,3.71-7.85,4.77-9.98,8.97-2.76-.05.12.38-.12-2.87,7.31,4.28,7.07,8.88.2,7.58-8.38.13-9.44,3.48-7.77.14.43.19-.43,2.07,6.16,8.16,8.05,6.74,3.72,6.47-1.93-5.45-18.48.75,1.39-.41-1.39,4.74,8.82,5.36,3.78,8-3.43,1.81-8.98,5.25-.24,9.51-.78.06.02.28-.02,6.66,2.73-.17-7.46,2.75-3.92,6.94-2.3,3.36-4.07.23.13.11-.13,6.39,3.58,10.61.68,5.52-.57,13.24-9.42,8.06-10.61,4.72-6.71,1.93-5.06,1.9-13.56,2.5-11.11,3.36-4.58-.59-4.55h-3.47s-5.43,2.11-5.43,2.11l-.05-.11-.29.11-.81-1.99Z"/><polygon class="cls-1" points="479.75 286.35 475.78 282.99 479.75 286.35 479.75 286.35"/><polygon class="cls-1" points="551.29 162.65 569.61 155.16 569.61 155.16 551.29 162.65"/><polygon class="cls-1" points="301.18 350.27 297.42 346.67 285.59 345.87 279.88 341.93 285.22 334.66 284.98 331.89 284.65 331.89 284.88 334.66 279.54 341.93 285.26 345.87 297.09 346.67 300.84 350.27 297.29 354.16 304.41 355.16 304.48 355.12 297.63 354.16 301.18 350.27"/><polygon class="cls-1" points="269.1 318.81 272.67 313 277.62 304.92 283.79 297.15 293.53 291.26 297.69 291.25 286.87 286.33 288.27 273.76 295.55 263.99 304.39 252.23 301.28 246.03 297.08 241.36 298.65 237.89 293.24 237.48 286.49 234.58 265.45 226.54 265.38 226.65 286.15 234.58 292.9 237.48 298.31 237.89 296.74 241.36 300.94 246.03 304.05 252.23 295.21 263.99 287.93 273.76 286.53 286.33 297.35 291.25 293.19 291.26 283.46 297.15 277.28 304.92 272.33 313 268.77 318.81 262.14 329.12 269.58 332.02 269.91 332.02 262.48 329.12 269.1 318.81"/><polygon class="cls-1" points="244.05 219.24 238.75 212.81 231.88 212.59 231.43 212.3 231.3 212.43 231.54 212.59 238.41 212.81 243.71 219.24 253.69 224.81 257.05 232.09 257.37 232.06 254.02 224.81 244.05 219.24"/><path class="cls-1" d="m341.32,343.88l-7.12-.62-7.41-8.99-7.53-.86.02.04,7.17.82,7.41,8.99,7.12.62,11.69,2.18,1.65,2.12c.06-.06.13-.12.19-.19l-1.5-1.93-11.69-2.18Z"/><path class="cls-1" d="m362.7,345.1c3.58.67,3.78,3.56,7.88,5.03.66.23,4.61,1.65,6.97-.23,1.65-1.31,1.85-3.69,2.1-6.6.35-4.16-.68-5.47.45-6.83,1.31-1.57,3.15-.37,5.47-2.1,1.89-1.4.99-2.43,3.08-4.88,2.38-2.79,4.55-2.63,6-5.55.48-.98.29-1.09.75-2.4,1.64-4.64,5.55-7.32,6.9-8.25,2.95-2.02,5.15-3.53,7.65-3,2.14.46,3.23,2.14,5.1,1.65,1.41-.37,1.3-1.46,2.55-1.8,2.61-.7,4.66,3.62,7.2,3,1.62-.39,1.5-2.33,3.6-3,1.36-.44,1.91.23,3.9.45,4.52.5,6.51-2.38,8.7-1.05,1.52.92,1.45,2.84,2.55,2.85,1.12,0,1.56-2,3.3-2.25.74-.1,1.32.16,1.65.3,2.65,1.09,7.67,1.24,10.35.75,3.83-.71,7.23-3.55,9-6.6,2.87-4.94.25-8.32,2.85-12.6,1.16-1.92,3.55-4.3,9.05-5.65l-3.97-3.35-22.32-14.89-3.06-2.04-16.71-8.46v-8.05s1.87-11.43,1.87-11.43l1.34-14.2,12.93-7.26,14.73-7.97,19.69-3.46,23.59-10.87,21.62-15.21,21.84-16.52,18.32-7.49,4.75-1.94s-55.19-19.35-53.13-20.26c2.05-.9-17.62-3.3-17.62-3.3,0,0-203.59,33.98-203.64,35.32s-52.25,25.15-52.25,25.15l-19.52,20.34,3.1,1.96.14-.13.45.28,6.87.23,5.3,6.43,9.98,5.57,3.34,7.25,4.29-.41,3.45-5.11.27.1.07-.1,21.04,8.03,6.75,2.9,5.41.41-1.57,3.47,4.2,4.67,3.11,6.21-8.84,11.76-7.28,9.77-1.4,12.57,10.82,4.92h-4.16s-9.74,5.9-9.74,5.9l-6.17,7.78-4.96,8.08-3.56,5.8-6.63,10.32,7.44,2.89,14.73-.12h0s.34,0,.34,0l.24,2.77-5.34,7.27,5.72,3.94,11.83.8,3.75,3.6-3.55,3.89,6.85.96,9.9-5.39,9.27-6.58-2.18-5.12-2.55-4.61.36.04-.02-.04,7.53.86,7.41,8.99,7.12.62,11.69,2.18,1.5,1.93c.72-.73,1.59-1.4,2.65-1.92.8-.39,2.97-1.46,5.55-.97Z"/><polygon class="cls-2" points="389.2 611.53 377.78 612.36 365.7 615.41 354.73 619.13 348.52 627.88 351.75 632.73 359.12 634.71 374.34 633.5 386.31 630.08 393.44 626.29 398.2 621.86 399.35 617.41 393.43 613.75 389.2 611.53"/><polygon class="cls-2" points="356.73 551.24 351.68 553.9 346.78 559.31 347.08 564.02 351.82 564.17 361.11 559.16 363.13 555.32 361.03 552.53 356.73 551.24"/><polygon class="cls-2" points="341.87 529.52 340.04 531.99 343.58 535.01 347.32 533.89 348.96 530.83 345.96 528.97 341.87 529.52"/><polygon class="cls-2" points="349.19 537.57 347.34 539.75 348.27 543.05 350.97 542.99 353.1 540.49 351.76 537.82 349.19 537.57"/><polygon class="cls-2" points="335.87 539.68 335.57 542.91 338.04 544 340.63 542.21 341.13 540.32 338.26 538.56 335.87 539.68"/><polygon class="cls-2" points="302.96 544.11 302.83 548.04 307.14 548.29 311.05 545.89 308.73 542.63 302.96 544.11"/><polygon class="cls-2" points="369.08 435.87 367.38 431.77 364.08 429.88 362.09 432.61 365.77 438.3 368.81 439.6 369.08 435.87"/><polygon class="cls-2" points="375.83 385.26 371.96 382.03 369.33 382.69 369.88 387.7 373.25 387.6 375.83 385.26"/></g></g></svg>